<svg width="89" height="79" viewBox="0 0 89 79" fill="none" xmlns="http://www.w3.org/2000/svg">
<path d="M61.323 75.3567C64.1276 75.415 67.9619 71.3812 71.7123 64.5246C73.1336 61.9053 75.2373 58.095 76.408 56.066C79.41 50.7644 80.8741 46.3777 81.2363 41.5669C81.8087 33.4485 80.2658 26.0434 77.5884 24.1231C75.2012 22.4565 71.394 22.3647 66.3541 23.927C62.5953 25.0751 51.438 25.7392 42.787 25.2897C39.464 25.0985 32.6084 25.1063 27.5296 25.3021C22.4665 25.461 17.0411 25.6404 15.4576 25.6215C10.1479 25.6322 8.17834 27.1478 9.96149 29.8209C10.7564 31.0728 17.882 37.4072 27.9969 45.9685C30.9297 48.4328 35.3535 52.488 37.8708 54.9937C54.681 71.8406 56.8585 73.8972 58.6722 74.6235C59.6462 75.0369 60.8326 75.3663 61.323 75.3567ZM57.1261 72.2252C55.4847 71.093 55.4411 70.9874 55.9423 69.8066C56.2242 69.1424 57.019 67.9991 57.6789 67.2776C58.5078 66.3665 59.3781 64.7327 60.4997 61.9861C61.9285 58.4119 62.3385 57.7585 64.8876 54.8776C68.2656 51.0856 68.5509 50.2051 69.6737 41.6234C70.1088 38.4113 70.691 34.9568 70.964 33.8968C71.8929 30.4588 71.8036 29.4193 70.4353 27.2271C69.7371 26.0598 69.2733 24.8613 69.3986 24.5661C69.7275 23.7912 73.9753 23.6781 75.6985 24.4096C78.4705 25.5862 80.0923 29.8892 80.1838 36.5475C80.3387 44.9311 79.0278 49.1651 72.6793 60.5802C69.3797 66.5829 67.9496 68.8065 65.9071 71.1186C63.5957 73.752 63.1455 74.0835 61.893 74.118C60.2189 74.1042 59.3417 73.7754 57.1261 72.2252ZM54.0693 69.0116C54.1946 68.7164 54.5665 68.5694 54.8661 68.6966C55.1658 68.8238 55.3184 69.1934 55.1931 69.4886C55.0678 69.7838 54.6959 69.9308 54.3962 69.8036C54.0966 69.6764 53.944 69.3068 54.0693 69.0116ZM45.2375 60.8642C41.7564 57.2962 38.6588 54.283 38.3373 54.103C38.0315 53.8861 37.7761 53.3421 37.7393 52.8039C37.7399 52.2816 37.5969 51.7854 37.4096 51.7059C37.2597 51.6423 37.144 51.8109 37.178 52.0431C37.1964 52.3122 37.0589 52.428 36.8716 52.3485C36.6468 52.2531 36.5222 52.026 36.6005 51.8415C36.6945 51.6201 36.4418 51.3822 36.0672 51.2232C35.7144 51.117 34.0232 49.7894 32.3198 48.2825L29.2249 45.5752L30.3118 43.1188C31.1167 41.3266 31.3367 40.2877 31.163 39.343C30.3626 35.0838 23.5504 32.8019 19.8489 35.5856L18.5358 36.596L17.2567 35.4433C16.5422 34.8352 15.7685 34.1584 15.5533 33.9364C15.2413 33.6298 15.4947 33.3454 16.5667 32.7988C18.3074 31.9264 19.6538 29.2753 19.1123 27.7389C18.9318 27.2268 18.9011 26.7783 19.0074 26.7363C20.251 26.3061 35.2244 26.1296 46.5554 26.4102C54.6071 26.6053 61.129 26.2382 65.1562 25.2912L68.0929 24.6216L68.6658 26.0841C68.9927 26.8761 69.5846 28.0854 69.9742 28.7299C70.5695 29.7229 70.5811 30.4246 69.9812 33.0877C69.5542 34.8226 68.9748 38.5832 68.6432 41.4473C67.7404 48.99 67.054 50.9196 63.723 54.601C61.2051 57.4081 60.9423 57.8191 59.8043 61.1248C58.5002 64.9262 55.9593 68.7251 55.0228 68.3276C54.7606 68.2163 54.2389 68.2997 53.867 68.4466C53.0606 68.8882 53.7158 69.4277 45.2375 60.8642ZM28.2093 43.4893C29.0191 42.8314 29.897 42.6379 29.6777 43.1545C29.3488 43.9294 28.5485 44.4607 28.0616 44.254C27.6495 44.0791 27.6747 43.9156 28.2093 43.4893ZM27.9457 42.0274C29.3214 40.8694 30.3839 40.4494 30.0706 41.1874C29.7417 41.9623 27.1094 43.8934 26.8663 43.5289C26.7042 43.2859 27.1359 42.6853 27.9457 42.0274ZM27.3511 40.512C29.8928 38.586 29.6646 38.7069 29.9888 39.1929C30.469 39.8323 26.3296 43.1269 25.7275 42.5664C25.3188 42.1752 25.6035 41.817 27.3511 40.512ZM23.9961 40.917C24.0588 40.7694 25.2561 39.9276 26.6658 39.0018C28.282 37.9023 29.2695 37.4505 29.4221 37.8201C29.5965 38.2425 27.317 40.2798 25.4604 41.3208C24.8822 41.6415 23.8082 41.3598 23.9961 40.917ZM23.4921 39.3966C24.0424 38.9334 25.0333 38.2653 25.7116 37.8129C26.4117 37.4133 27.0308 36.8922 27.1091 36.7077C27.2971 36.2649 25.0748 37.5426 23.4866 38.7846C22.8832 39.2688 22.1769 39.5787 21.9522 39.4832C21.3903 39.2447 21.8282 38.7338 24.0947 37.0394C25.8048 35.7185 26.1985 35.6243 27.2474 36.0696C27.9216 36.3558 28.4209 36.7419 28.3426 36.9264C28.0293 37.6644 23.5561 40.5996 23.0692 40.3929C22.6196 40.2021 22.6823 40.0545 23.4921 39.3966ZM20.6015 38.0825C20.468 37.4597 24.1314 35.1824 24.8057 35.4686C25.3301 35.6912 25.2144 35.8598 24.0641 36.5909C23.3857 37.0433 22.4322 37.7273 22.0039 38.1116C21.1941 38.7695 20.7037 38.7791 20.6015 38.0825ZM19.8939 37.0418C19.9409 36.9311 20.3004 36.6047 20.66 36.2783C21.698 35.4995 22.219 35.9384 21.2403 36.7859C20.5211 37.4387 19.6432 37.6322 19.8939 37.0418ZM15.9829 30.1122L17.9402 28.4172L17.7605 29.7781C17.6154 30.8488 17.3212 31.3336 16.5741 31.8439C15.18 32.7328 15.1057 32.1787 16.4501 31.0945C18.0165 29.7997 17.4199 29.8513 15.7098 31.1722C13.5652 32.7877 13.7565 32.1285 15.9829 30.1122ZM13.1081 31.1565C13.1708 31.0089 16.751 27.7818 17.1855 27.4872C17.2918 27.4452 17.426 27.5457 17.5288 27.72C17.6875 28.1793 13.779 31.659 13.3295 31.4682C13.1796 31.4046 13.0611 31.2672 13.1081 31.1565ZM12.1409 30.3105C12.3759 29.757 16.437 26.6469 16.546 26.9109C16.7204 27.3333 12.7744 30.7971 12.3623 30.6222C12.2125 30.5586 12.094 30.4212 12.1409 30.3105ZM12.2744 28.5381C12.9404 27.9063 13.6378 27.2007 13.8442 27.027C14.2194 26.6637 14.9877 26.7285 14.8311 27.0975C14.7997 27.1713 14.0649 27.861 13.2238 28.5927C11.404 30.1719 10.5826 30.1281 12.2744 28.5381ZM11.504 27.645C12.6455 26.5181 13.3667 26.6937 12.2784 27.7995C11.2276 28.9212 10.8087 29.1789 10.6779 28.8621C10.6126 28.7037 10.9755 28.161 11.504 27.645Z" fill="#F86B1C" fill-opacity="0.4"/>
<path d="M48.255 60.8384C51.3219 61.008 53.0661 59.9193 54.2408 57.1518C55.2903 54.6794 55.1145 52.9064 53.6705 51.2048C51.1975 48.2824 47.2533 47.784 44.5646 49.9524C40.797 53.1 41.3692 57.4801 45.9169 59.8895C46.8438 60.4136 47.9084 60.8219 48.255 60.8384ZM49.4522 57.6014C50.7122 56.612 52.094 55.5437 52.5067 55.1963C53.6918 54.1751 53.8287 54.5816 53.0421 56.6429C52.2651 58.5777 51.0018 59.7834 49.7806 59.744C49.3433 59.7326 49.7125 59.2796 50.9349 58.2743C53.4113 56.1899 52.9086 56.0201 50.3574 58.0727C49.1662 59.0042 47.9567 59.6666 47.6945 59.5553C47.2824 59.3804 47.7891 58.8116 49.4522 57.6014ZM49.2546 55.7756C52.7062 53.06 54.0908 52.2977 53.6053 53.4416C53.198 54.401 46.7205 59.1419 46.1586 58.9034C45.784 58.7444 46.7034 57.8282 49.2546 55.7756ZM43.6542 56.0548C43.9831 55.2799 50.8611 50.0122 51.3106 50.203C52.0972 50.5369 51.675 51.0109 47.9919 54.0637C46.1033 55.7008 44.543 57.0853 44.6023 57.154C44.6459 57.2596 46.3403 55.9756 48.3569 54.3493C52.2151 51.1966 52.6871 50.9179 52.8111 51.6674C52.8295 51.9365 51.1595 53.5793 49.0428 55.3373L45.2221 58.5059L44.3333 57.4753C43.8749 56.8888 43.5602 56.2762 43.6542 56.0548ZM45.8144 52.0072C48.5032 49.8388 50.1909 48.9874 49.7523 50.0206C49.674 50.2051 48.1825 51.5317 46.4628 52.9792C44.0553 55.0057 43.2707 55.5001 43.0746 55.0249C42.8784 54.5497 43.5009 53.8123 45.8144 52.0072ZM45.0441 51.1141C45.5787 50.6878 46.4164 50.1724 46.9163 50.0362C47.5068 49.8949 47.169 50.2741 45.862 51.3742C44.7928 52.2268 43.9551 52.7422 43.9898 52.4521C44.0089 52.1989 44.4938 51.5773 45.0441 51.1141Z" fill="#F86B1C" fill-opacity="0.4"/>
<path d="M41.6765 38.8411C45.7316 38.0365 47.6609 33.8038 45.1592 31.2612C42.8353 28.9248 38.5479 28.1936 36.7343 29.8625C34.73 31.6682 34.4828 34.4375 36.1638 36.414C37.511 38.031 40.0801 39.1651 41.6765 38.8411ZM39.1796 37.4328C39.2266 37.3221 40.3585 36.3219 41.6655 35.2218C44.073 33.1953 45.6919 32.4018 44.4626 33.8397C43.249 35.2408 39.8505 37.9354 39.4759 37.7763C39.2511 37.6809 39.1326 37.5435 39.1796 37.4328ZM40.5267 34.2594C43.428 32.007 44.1281 31.6074 44.3242 32.0826C44.455 32.3994 40.9749 35.4948 39.1462 36.6783C38.6429 37.0308 38.1369 37.0773 38.0279 36.8133C37.9189 36.5493 38.9916 35.4804 40.5267 34.2594ZM43.0201 35.884C44.6805 34.3678 45.4774 34.0528 45.0388 35.086C44.4593 36.4513 41.2706 38.7559 41.3311 37.78C41.372 37.5796 42.132 36.7264 43.0201 35.884ZM36.8081 35.7294C37.137 34.9545 42.6392 30.8448 43.1262 31.0515C43.4259 31.1787 42.3532 32.2476 40.4054 33.816C37.4571 36.1791 36.3852 36.7257 36.8081 35.7294ZM36.0132 34.4775C36.2481 33.924 41.1688 30.3513 41.781 30.2628C42.5902 30.1272 42.1148 30.6222 39.1978 32.9115C36.5778 35.022 35.5746 35.5107 36.0132 34.4775ZM37.5816 31.6157C38.8824 30.4259 40.0232 29.8214 40.2193 30.2966C40.3127 30.5976 36.3612 33.4493 36.2522 33.1853C36.1712 33.0638 36.778 32.3633 37.5816 31.6157Z" fill="#F86B1C" fill-opacity="0.4"/>
<path d="M61.0256 43.8751C62.1562 43.9195 64.2096 42.8314 64.9948 41.8147C65.7487 40.8718 65.9455 38.4295 65.3536 37.2202C64.1854 34.7646 60.8352 33.9087 58.5625 35.5134C57.0526 36.5708 56.5453 37.662 56.6836 39.4191C56.8832 42.0732 58.6051 43.8493 61.0256 43.8751ZM62.4292 40.4644C63.8805 38.8159 65.0403 37.9582 64.6957 38.77C64.5234 39.1759 63.1784 40.7824 61.7836 42.1936C60.3418 43.7155 60.8777 42.2446 62.4292 40.4644ZM61.4647 39.9244C62.6688 38.6499 63.6257 37.7496 63.6066 38.0028C63.559 38.6359 59.9903 42.5647 59.6157 42.4057C59.4284 42.3262 60.2607 41.1988 61.4647 39.9244ZM60.4881 39.2049C62.6524 36.8139 63.881 35.8983 62.8983 37.4844C61.8781 39.0546 58.6445 42.2983 58.714 41.718C58.7112 41.412 59.5435 40.2846 60.4881 39.2049ZM59.2709 38.427C60.6909 36.8523 62.476 35.5632 62.1688 36.3909C61.6989 37.4979 58.2808 40.968 58.0846 40.4928C57.9538 40.176 58.3951 39.4488 59.2709 38.427ZM63.3841 41.131C63.9221 40.4884 64.3566 40.1938 64.3375 40.447C64.296 41.1697 63.1199 42.5866 62.7453 42.4276C62.558 42.3481 62.846 41.7736 63.3841 41.131ZM58.013 37.8495C58.2949 37.1853 59.0298 36.4956 59.8954 36.1227C60.7079 35.7708 61.1234 35.7294 60.87 36.0138C60.601 36.3351 59.9097 37.1304 59.2873 37.8678C58.011 39.4164 57.3551 39.3993 58.013 37.8495Z" fill="#F86B1C" fill-opacity="0.4"/>
</svg>
