<svg width="49" height="60" viewBox="0 0 49 60" fill="none" xmlns="http://www.w3.org/2000/svg">
<path d="M2.35751 18.0018C3.16927 18.9934 5.97951 22.478 8.58533 25.7529C20.9483 41.2963 30.7591 53.353 31.4093 53.8153C31.8101 54.0502 32.8648 54.2572 33.7321 54.2093C35.1775 54.1295 35.5174 53.9782 37.732 52.466C40.4918 50.5983 41.611 49.5362 42.8953 47.3483C44.3879 44.8796 45.0691 42.5843 45.134 39.7365C45.2363 35.1431 44.7353 33.1863 42.092 27.7481C39.292 22.0415 36.9982 18.5525 34.0046 15.4879C30.8067 12.2135 28.5423 10.7035 24.2213 8.98151C21.1705 7.78401 19.712 7.41859 16.9396 7.26227C15.0006 7.14833 12.4467 7.23305 11.2704 7.41848C6.71691 8.16794 1.39284 12.3425 0.985038 15.4181C0.868599 16.0713 1.12295 16.5594 2.35751 18.0018ZM3.15216 15.1298C3.25586 15.1963 8.20721 21.411 14.107 29.0074C20.0237 36.5587 26.7213 45.1155 29.0389 47.9925C31.3256 50.8832 33.1756 53.2919 33.1417 53.3822C33.1218 53.5038 32.8297 53.5963 32.4958 53.5946C31.8418 53.6227 31.3462 53.0916 28.0802 48.8328C26.7648 47.1257 22.1186 41.2638 17.7466 35.7685C0.342615 13.9752 1.75873 15.8253 2.39662 15.4286C2.67768 15.2283 3.03153 15.1083 3.15216 15.1298ZM3.1993 12.7409C4.12208 11.6535 5.02706 11.0251 7.40925 9.88929L10.4433 8.3881L7.96457 10.0555C6.56223 10.9805 4.88391 12.3667 4.21425 13.1911C3.49973 13.9978 2.72935 14.6791 2.47116 14.6813C1.74145 14.7055 1.91079 14.2542 3.1993 12.7409ZM7.19697 13.4041C11.3383 11.1468 14.1213 10.246 16.2368 10.5068C19.2445 10.8591 20.7224 12.6817 19.8139 14.9654C18.5558 18.0438 18.3741 20.3798 18.4512 31.6962C18.4495 32.5239 18.3508 32.7182 18.0736 32.4281C17.6787 32.0402 4.6107 15.4952 4.41222 15.1325C4.33942 15.0522 5.58429 14.2724 7.19697 13.4041ZM10.083 10.2399C13.76 8.60276 14.6361 8.32542 15.4805 8.47567C16.0219 8.6105 16.8752 8.53126 17.3387 8.32491C18.451 7.82965 19.0702 8.30567 17.9718 8.83229C16.997 9.30389 17.3001 9.3193 19.0186 8.85487C19.6615 8.71895 20.5597 8.65733 21.0253 8.78831C21.777 8.97983 21.7152 9.00734 20.4094 9.40079C18.3849 9.9263 18.8306 10.1789 21.0206 9.69246C23.3481 9.18236 24.2115 9.62481 22.1392 10.2092L20.7098 10.6577L22.1273 10.5152C22.9049 10.4321 23.7751 10.3077 24.0532 10.1839C24.3453 10.0915 24.8447 10.1322 25.1727 10.2868C25.8876 10.6451 25.778 10.7315 24.3943 10.7837C23.861 10.8333 23.555 10.8943 23.7484 10.9962C23.9588 11.0528 24.7782 11.0639 25.5837 11.0435C26.4061 10.978 27.2056 11.1107 27.3961 11.289C27.6144 11.53 27.443 11.6439 26.7133 11.6681C26.0903 11.6824 25.874 11.7787 26.0953 11.9433C26.2718 12.0902 26.6058 12.0918 26.8221 11.9955C27.0693 11.8855 27.6893 11.9477 28.2586 12.1452C29.1589 12.421 29.2177 12.4699 28.5917 12.5607C27.9348 12.6653 27.9348 12.6653 28.6277 12.8078C30.5886 13.1375 30.7372 13.2217 30.4612 13.6828C30.2499 14.04 30.4264 14.1869 31.1951 14.3333C32.3565 14.5303 32.8631 15.1692 31.9061 15.1819C31.4795 15.2215 31.6699 15.3998 32.5223 15.7344C33.8065 16.2902 34.333 16.8075 33.5026 16.6886C33.2164 16.6281 33.4797 16.8867 34.0909 17.1784C35.1756 17.7854 35.8837 18.7104 35.1739 18.613C34.5399 18.5195 34.9567 19.1232 35.6775 19.3284C36.5778 19.6041 36.7534 20.1649 35.8502 19.9657C35.4743 19.8699 35.606 19.9992 36.1723 20.2733C37.4564 20.8291 37.8115 21.4603 36.9442 21.5082C36.4418 21.544 36.5286 21.6557 37.3332 22.0491C38.5136 22.5384 38.9474 23.0969 37.9714 22.8174C37.6264 22.7079 37.3962 22.7728 37.48 22.961C37.5498 23.1178 37.9058 23.3352 38.2507 23.4447C38.9715 23.65 39.528 24.5674 38.8491 24.4562C38.6218 24.4446 38.8402 24.6857 39.3727 25.05C39.922 25.3692 40.1235 25.6553 39.8513 25.6261C39.5961 25.5518 39.4247 25.6658 39.4806 25.7912C39.5504 25.9481 39.8754 26.1792 40.1586 26.3162C40.6212 26.5237 40.6631 26.6178 40.4409 26.8671C40.1877 27.1301 40.3024 27.3046 40.8658 27.6551C41.7402 28.2054 42.0564 28.666 41.4672 28.5901C41.2399 28.5785 41.1303 28.6649 41.214 28.8531C41.2839 29.01 41.5501 29.1921 41.7465 29.2174C41.9738 29.229 42.237 29.4876 42.3488 29.7386C42.4744 30.0209 42.3618 30.1838 42.0897 30.1546C41.652 30.0864 41.7248 30.1667 42.9823 31.411C43.2176 31.6069 43.091 31.7384 42.6644 31.778C42.0862 31.8099 42.0693 31.855 42.5458 32.0939C42.8599 32.2171 43.2548 32.6051 43.3944 32.9188C43.6319 33.452 43.584 33.5109 42.9529 33.3409C42.3079 33.1394 42.3219 33.1708 42.9102 33.6606C43.8824 34.4305 44.0889 34.9775 43.2783 34.737C42.5127 34.5141 42.5935 34.7788 43.465 35.4056C44.3085 35.9697 44.1053 36.5112 43.1432 36.263C42.5431 36.0792 42.557 36.1105 43.4005 36.6746C44.4963 37.3895 44.4527 38.123 43.337 37.5298C42.5633 37.1225 42.5633 37.1225 43.0898 37.6398C44.1259 38.7195 44.3832 39.1312 44.1051 39.255C43.9506 39.3238 43.474 39.0849 43.0622 38.7421C42.6673 38.3541 42.2945 38.1819 42.2128 38.331C42.1759 38.4977 42.5259 38.8681 42.9856 39.1521C43.9328 39.7827 44.2181 40.2571 44.1096 41.0946C44.044 41.6125 43.9204 41.6675 43.2754 41.4661C42.5994 41.2784 42.6134 41.3098 43.2017 41.7996C44.146 42.5067 44.1959 42.7852 43.3854 42.5447C42.7543 42.3746 42.7373 42.4197 43.2609 43.0135C43.7984 43.6387 43.8124 43.67 43.0915 43.4648C42.3707 43.2595 42.3847 43.2909 42.9082 43.8847C43.359 44.3981 43.3531 44.5511 42.9124 44.5593C42.4858 44.5989 42.4519 44.6892 42.7431 45.0106C43.0652 45.3182 43.0144 45.4536 42.5738 45.4618C42.2089 45.4739 42.0515 45.6192 42.225 45.8426C42.3536 46.0484 42.1932 46.2702 41.9151 46.394C41.5613 46.514 41.5384 46.7121 41.7707 46.9845C42.034 47.2431 41.9832 47.3785 41.6632 47.4082C41.419 47.4418 41.0054 47.9266 40.7853 48.5132C40.5961 49.0861 40.1795 49.6474 39.9323 49.7574C39.6542 49.8813 39.9938 48.5649 40.6821 46.8678C42.0986 43.2303 42.2524 40.8316 41.177 38.4163C40.5625 37.0361 40.5604 36.6988 41.0218 36.1551C42.1021 34.9224 41.8923 33.2869 40.1855 29.5366C38.2722 25.2393 36.6347 23.2246 34.4503 22.393C33.0286 21.8609 32.883 21.7002 32.8259 20.8236C32.7168 19.3311 31.9817 17.9295 30.2964 15.9737C27.564 12.8304 24.0536 11.3489 21.7361 12.3807C20.9945 12.7109 20.7393 12.6366 20.2636 11.9839C18.0755 8.89888 13.8268 8.83609 8.12063 11.9029C5.71853 13.1603 5.30288 13.3077 5.48914 12.8114C5.64451 12.3288 6.77678 11.7119 10.083 10.2399ZM19.1184 29.3696C19.1825 26.9356 19.2843 23.921 19.3178 22.6658C19.443 17.8743 20.3989 14.3667 21.8859 13.2161C23.4686 11.9476 27.1974 13.6701 30.1033 17.0369C31.5842 18.783 31.7547 19.0829 31.8698 20.4224C31.9988 21.7932 31.9171 21.9423 30.6553 22.7672C29.8629 23.2328 28.4229 24.7384 27.3507 26.1554C26.2784 27.5724 24.2475 29.8297 22.8134 31.1823C21.3793 32.5349 20.007 33.8601 19.7539 34.1231C19.0732 34.8396 18.9793 34.1297 19.1184 29.3696ZM20.8809 35.9892C21.118 35.3574 24.0228 35.2293 27.513 35.6673C29.5976 35.942 32.7707 36.3333 34.5243 36.5298C38.6515 36.9849 39.8629 37.4604 40.5192 38.9347C42.1253 42.5419 38.7137 51.4276 35.1294 53.0234L34.2024 53.4361L27.6225 44.9774C24.0064 40.3482 21.0146 36.4558 20.9418 36.3755C20.869 36.2952 20.8301 36.1246 20.8809 35.9892ZM22.7828 32.3611C24.0396 31.2753 26.239 28.9806 27.6431 27.2279C30.803 23.2652 32.2472 22.4343 34.3529 23.3385C36.1894 24.137 37.782 26.134 39.3042 29.5531C40.3377 31.8743 40.5632 32.7135 40.4789 34.1041C40.4573 35.0534 40.1944 35.9597 39.9442 36.1463C39.6632 36.3466 38.2854 36.2459 36.8997 35.9608C33.1801 35.1738 22.9469 34.3928 21.9891 34.8193C21.1239 35.2045 20.6105 35.1324 20.5555 34.5931C20.5166 34.4225 21.543 33.4017 22.7828 32.3611Z" fill="#F86B1C" fill-opacity="0.4"/>
<path d="M23.5729 24.0775C23.9337 23.9169 25.2679 19.8519 25.09 19.4524C24.8677 18.9529 23.7301 18.7812 23.3091 19.2479C22.7389 19.8209 22.9826 24.3404 23.5729 24.0775ZM23.3952 20.7655C23.3854 19.7725 24.1227 19.0452 24.434 19.7444C24.523 19.9442 24.429 20.7042 24.2219 21.4746C23.8107 22.9344 23.3736 22.5705 23.3952 20.7655Z" fill="#F86B1C" fill-opacity="0.4"/>
<path d="M11.2269 30.1081C12.1085 30.9663 12.2885 30.5481 12.0584 28.3859C11.8408 26.2518 11.4381 25.7213 10.4377 26.1667C9.52065 26.575 9.99023 28.901 11.2269 30.1081ZM10.4038 26.6888C10.5077 26.4735 10.7022 26.3869 10.9847 26.4978C11.3074 26.6245 11.4707 26.9912 11.5849 27.9206C11.8554 30.0987 11.8527 30.1675 11.2913 29.5048C10.6895 28.8263 10.2031 27.2852 10.4038 26.6888Z" fill="#F86B1C" fill-opacity="0.4"/>
<path d="M22.6783 39.5113C24.1726 40.7351 25.004 40.9818 25.9865 40.5443C27.0641 40.0645 27.1293 39.1873 26.1464 38.4298C25.4366 37.8591 22.2226 37.2083 21.557 37.5046C21.0499 37.7304 21.5604 38.6211 22.6783 39.5113ZM22.3823 37.9082C22.5408 37.8376 23.4703 37.9635 24.4428 38.1859C26.2814 38.5625 26.9647 39.4148 25.9731 40.0876C25.3157 40.5731 24.2686 40.2683 23.2171 39.2714C22.1943 38.3389 22.0337 38.0634 22.3823 37.9082Z" fill="#F86B1C" fill-opacity="0.4"/>
<path d="M27.6131 33.0923C29.7655 32.9139 30.4599 32.4191 29.9768 31.3342C29.6456 30.5902 28.9914 30.4358 28.0143 30.8708C27.1594 31.2515 25.4812 32.7415 25.6054 33.0205C25.6606 33.1445 26.559 33.1901 27.6131 33.0923ZM28.7237 31.1493C29.2231 31.0383 29.5473 31.1911 29.638 31.5593C29.7781 32.2026 28.6789 32.692 27.0121 32.7285L26.0358 32.7545L26.9941 32.0308C27.5053 31.6175 28.2854 31.233 28.7237 31.1493Z" fill="#F86B1C" fill-opacity="0.4"/>
</svg>
