<svg width="86" height="115" viewBox="0 0 86 115" fill="none" xmlns="http://www.w3.org/2000/svg">
<path d="M24.1701 12.134C24.0604 12.3913 24.8233 13.0296 25.817 13.623C30.5564 16.4381 31.7882 22.57 30.0102 34.9897C29.4478 38.8746 29.027 43.2826 29.0761 44.7676C29.2332 51.7377 32.6711 57.7161 37.868 60.0095C41.7634 61.7694 45.2243 61.2934 47.1348 58.7982C48.1596 57.4978 48.1522 57.4599 47.4671 53.9354C46.7894 50.4489 46.7289 50.3426 43.661 46.0621C38.9839 39.4594 38.7195 38.9208 36.6569 30.1581C34.3994 20.8039 33.1544 18.0962 29.011 13.8281C27.1144 11.8763 24.6253 10.9836 24.1701 12.134ZM33.3418 22.3466C34.0122 23.9468 35.312 28.3743 36.2558 32.2025C38.1121 39.9041 38.3986 40.5564 42.9251 46.7951C45.1507 49.8235 45.5894 50.6428 46.2884 53.4173C47.2027 57.0938 46.8933 57.3506 44.3714 54.8518C42.4969 53.0137 41.2855 50.8894 39.6026 46.3397C38.1457 42.336 36.543 39.2259 36.0429 39.3231C35.5427 39.4204 35.528 39.3446 36.8385 41.5676C37.4442 42.6297 38.5606 45.0871 39.2973 47.0284C41.0187 51.5706 42.641 54.1656 44.9239 55.8456C45.9086 56.5981 46.7468 57.4184 46.7836 57.6079C46.9383 58.4038 45.3618 59.5361 43.6306 59.8726C38.7446 60.8224 33.3226 56.9601 31.1675 51.0077C29.9659 47.7017 29.889 44.0196 30.9425 36.4996C32.0976 27.8586 32.1926 25.677 31.3544 21.1598C30.7152 17.6657 30.7094 17.4309 31.3774 18.4023C31.7719 18.9942 32.6788 20.7844 33.3418 22.3466Z" fill="#F86B1C" fill-opacity="0.4"/>
<path d="M39.3833 29.7598C39.8361 32.0891 41.1771 35.2877 41.8103 35.4981C41.9968 35.5869 42.2588 35.4109 42.375 35.1382C42.4757 34.7853 42.4271 34.753 42.1729 34.9691C41.8858 35.2333 41.6603 34.9438 41.4807 34.02C41.3402 33.2972 40.9603 31.9956 40.6662 31.1358L40.1501 29.569L41.6464 30.7369C42.7307 31.5264 43.1367 31.6559 43.0508 31.2141C42.9728 30.8125 42.6423 30.4183 42.3257 30.3131C42.009 30.208 41.2743 29.4755 40.6619 28.7193C40.0573 28.0033 39.4354 27.4157 39.2723 27.4474C39.0685 27.487 39.1413 28.5148 39.3833 29.7598Z" fill="#F86B1C" fill-opacity="0.4"/>
<path d="M44.4173 32.1843C44.8076 33.4089 47.6569 35.0059 48.1316 34.3134C48.2993 34.1307 47.4269 33.2999 46.2026 32.4875C44.1716 31.1816 44.0644 31.1525 44.4173 32.1843Z" fill="#F86B1C" fill-opacity="0.4"/>
<path d="M43.9611 35.3854C43.6558 35.5559 44.4129 36.7423 46.217 39.0589C50.1189 44.0423 50.8868 45.6711 51.5059 50.4036L52.0378 54.301L53.0887 54.0968C54.5744 53.808 56.3246 52.1712 57.0046 50.4461C57.855 48.2434 56.9731 42.9322 55.3186 40.031C54.0063 37.73 51.9779 35.42 51.3981 35.5327C50.8183 35.6454 51.0396 36.0099 52.8229 38.2193C55.795 41.9017 57.0817 46.3933 56.084 49.773C55.5783 51.4272 55.1681 52.0256 53.9607 52.7789L53.081 53.2833L52.347 49.314C51.509 44.8093 50.442 42.6088 46.998 38.2402C44.6496 35.2516 44.47 35.1013 43.9611 35.3854Z" fill="#F86B1C" fill-opacity="0.4"/>
<path d="M26.6743 50.1618C26.5568 50.2899 26.802 52.1004 27.2025 54.1613C27.8001 57.2356 28.1081 58.0874 28.9275 59.1903C30.2278 60.936 31.4567 61.3983 32.9883 60.8552C35.6809 59.876 35.5226 58.329 32.5031 55.7956C29.9054 53.6008 28.7853 52.4161 28.2468 51.2937C27.7754 50.3335 26.945 49.7236 26.6743 50.1618ZM28.6656 53.6314C29.0451 54.1187 30.3301 55.2363 31.5071 56.1645C33.0584 57.3705 33.6619 58.0947 33.7115 58.7161C33.8289 60.236 32.5498 60.0639 31.2626 58.3858C30.646 57.594 30.0688 57.005 29.9856 57.1264C29.9367 57.241 30.3147 57.9038 30.8364 58.5738C31.6427 59.6091 31.6887 59.8456 31.2575 59.8242C29.9768 59.8277 28.894 58.2852 28.2183 55.5416C27.9016 54.0955 27.6652 52.8793 27.8024 52.8526C27.9053 52.8326 28.2927 53.178 28.6656 53.6314Z" fill="#F86B1C" fill-opacity="0.4"/>
<path d="M38.5124 60.1759C29.9464 62.251 24.1177 64.3906 19.9743 67.0227C16.7023 69.0754 12.7475 72.6775 12.3804 73.9045C11.9389 75.3324 13.0787 81.0012 14.3442 83.8122C17.6339 91.0017 27.0045 98.1276 36.7545 100.781C39.755 101.614 39.9722 101.758 40.3144 103.518C40.5518 104.74 40.6891 104.862 42.0353 104.973C44.7277 105.196 50.8287 104.457 55.7604 103.349C59.9262 102.391 60.9924 102.034 62.7056 100.918C64.7261 99.6308 64.7261 99.6308 64.5872 97.9429C64.4483 96.255 64.4778 96.2119 67.3409 93.4186C72.0763 88.77 75.5874 82.4955 77.5637 75.1398C78.8339 70.382 79.0722 67.1295 78.488 62.9558C77.7602 57.6543 77.2683 57.2653 69.7241 56.4203C62.6021 55.6051 51.9163 56.8994 38.5124 60.1759ZM60.0835 57.2504C69.0957 56.6916 76.7166 57.9317 76.8019 59.9283C76.857 61.1851 75.0833 62.5738 70.6528 64.7025C63.3492 68.2099 59.977 69.1636 45.3605 72.0421C26.1854 75.8066 17.0708 76.4226 14.1557 74.0814C13.2953 73.3539 13.9874 72.4365 17.2555 69.9744C21.6154 66.7037 27.7179 64.0263 35.9938 61.8211C42.9708 59.943 55.7849 57.5268 60.0835 57.2504ZM77.5289 62.6949C77.3815 62.9099 76.0989 63.9048 74.6565 64.8563C73.2575 65.8365 71.9905 66.7166 71.902 66.8456C71.5777 67.3188 73.4577 66.2823 75.5232 64.8369C76.6948 64.05 77.7051 63.4062 77.792 63.4639C78.1396 63.6946 77.397 64.5473 75.8211 65.7856C74.8683 66.53 74.1708 67.2248 74.2941 67.2754C74.381 67.3331 75.2299 66.8325 76.1532 66.1311C77.4653 65.0932 77.8525 64.9434 77.9363 65.3745C77.9921 65.6618 77.352 66.4573 76.4946 67.1086C75.6077 67.8029 75.174 68.2973 75.4727 68.2766C75.8009 68.2128 76.372 67.8408 76.7468 67.4324C77.158 67.017 77.6042 66.7811 77.778 66.8964C78.0751 67.0624 77.1836 68.3168 75.8839 69.6133C75.5681 69.9356 75.773 69.8213 76.3666 69.3704C77.0036 68.9483 77.6251 68.6411 77.7624 68.7635C78.1465 68.9871 76.8003 70.6281 76.1074 70.7628C75.8521 70.8125 75.5588 71.0559 75.4618 71.3357C75.3354 71.6585 75.4517 71.6732 75.825 71.4515C76.1617 71.2369 76.6304 70.9221 76.9011 70.7577C77.1719 70.5932 77.4412 70.6154 77.4831 70.831C77.532 71.0824 77.0323 71.6269 76.3588 72.0561C75.6853 72.4852 75.2446 72.9437 75.3679 72.9943C75.4983 73.0808 75.9149 72.888 76.3107 72.5874C76.8972 72.1005 77.0136 72.1152 76.981 72.5316C76.957 72.7972 76.3983 73.4278 75.7753 73.9217L74.6541 74.7734L75.8885 74.3098C76.9771 73.8745 77.0571 73.8962 76.7242 74.5201C76.5318 74.8931 76.0701 75.2438 75.7419 75.3076C75.4137 75.3714 74.938 75.6502 74.6882 75.9225C74.3064 76.2949 74.4228 76.3096 75.1972 76.0099C76.5201 75.4172 76.5139 76.1641 75.2174 77.0871C74.1481 77.8169 74.1481 77.8169 75.1273 77.4029C76.4573 76.8461 76.1958 77.6426 74.7308 78.6729C74.1303 79.0879 74.0123 79.26 74.4655 79.06C75.7884 78.4674 75.4889 79.4576 73.9945 80.531C72.8004 81.3969 72.7414 81.4829 73.6251 81.162L74.6773 80.7338L73.9417 81.6224C73.5444 82.1097 73.0238 82.5464 72.7321 82.6031C72.4768 82.6527 72.1835 82.8962 72.0795 83.14C71.9895 83.4558 72.1424 83.4634 72.6545 83.1774C73.0641 82.9487 73.4063 82.9567 73.4482 83.1722C73.546 83.6752 72.3278 84.8067 71.1073 85.3422C70.5882 85.5922 70.097 85.9859 69.9931 86.2298C69.8961 86.5096 70.0489 86.5172 70.4881 86.2454C70.8179 85.9949 71.4324 85.6518 71.8126 85.4661C73.1285 84.8375 71.8847 86.4213 70.5168 87.1719C69.8293 87.5292 69.1333 88.0373 68.9564 88.2953C68.6616 88.7255 68.8005 88.6612 70.4547 87.6313C70.9598 87.3094 70.9738 87.3813 70.4865 88.1843C70.1692 88.6934 69.7649 89.1448 69.5461 89.1873C69.3343 89.2658 68.7198 89.6089 68.1627 90.0527C67.2688 90.7111 67.2758 90.747 68.0501 90.4474C68.8905 90.0976 68.8974 90.1336 68.3318 90.7282C67.9865 91.0935 67.5248 91.4442 67.2696 91.4938C66.5402 91.6356 64.9659 92.6873 65.2266 92.8603C65.3569 92.9468 65.7806 92.7899 66.1328 92.4604C66.5945 92.1097 66.8498 92.0601 66.8917 92.2756C66.9336 92.4912 66.2795 93.2148 65.3856 93.8732C63.9347 94.9754 63.1898 95.232 52.2813 97.9117L40.7233 100.755L38.1799 100.131C34.3648 99.1947 30.1857 97.3601 26.39 94.9664C18.8855 90.2365 14.7375 84.6678 13.2975 77.4543C13.0252 76.0533 12.8677 74.8536 12.9771 74.8324C13.05 74.8182 13.9796 75.1222 15.0465 75.5486C19.1331 77.1029 28.5255 76.3583 45.0229 73.2261C54.4681 71.3902 57.8751 70.6161 61.8183 69.2904C67.7253 67.3593 72.2791 65.2811 75.2454 63.2133C77.172 61.8322 78.2661 61.6196 77.5289 62.6949ZM63.729 97.8114C63.8431 98.9822 63.7181 99.1184 61.6403 100.305C60.4112 100.991 58.0586 101.933 56.4091 102.403C53.57 103.179 45.3764 104.249 42.3837 104.235C41.1679 104.21 41.074 104.116 40.8156 102.787L40.5363 101.35L51.5077 98.994C57.5334 97.6736 62.5605 96.4728 62.649 96.3437C63.0323 95.7846 63.608 96.6047 63.729 97.8114Z" fill="#F86B1C" fill-opacity="0.4"/>
</svg>
