<svg width="18" height="20" viewBox="0 0 18 20" fill="none" xmlns="http://www.w3.org/2000/svg">
<path d="M3.133 18.5C1.955 18.5 1 17.5745 1 16.4317V8.11883C1 7.49078 1.295 6.89579 1.8 6.50385L7.667 1.95359C8.04186 1.66042 8.5133 1.5 9 1.5C9.4867 1.5 9.95814 1.66042 10.333 1.95359L16.199 6.50385C16.705 6.89579 17 7.49078 17 8.11883V16.4317C17 17.5745 16.045 18.5 14.867 18.5H3.133Z" stroke="black" stroke-width="1.3" stroke-linecap="round" stroke-linejoin="round"/>
<path d="M6.3335 18.5V12.7461C6.3335 12.1912 6.55826 11.659 6.95833 11.2666C7.35841 10.8742 7.90103 10.6538 8.46683 10.6538H9.5335C10.0993 10.6538 10.6419 10.8742 11.042 11.2666C11.4421 11.659 11.6668 12.1912 11.6668 12.7461V18.5" stroke="black" stroke-width="1.3" stroke-linecap="round" stroke-linejoin="round"/>
</svg>
