<svg width="24" height="22" viewBox="0 0 24 22" fill="none" xmlns="http://www.w3.org/2000/svg">
<path d="M1 1.5H5L7.68 13.6148C7.77144 14.0313 8.02191 14.4055 8.38755 14.6718C8.75318 14.9381 9.2107 15.0796 9.68 15.0714H19.4C19.8693 15.0796 20.3268 14.9381 20.6925 14.6718C21.0581 14.4055 21.3086 14.0313 21.4 13.6148L23 6.02381H6M10 19.5952C10 20.0949 9.55228 20.5 9 20.5C8.44772 20.5 8 20.0949 8 19.5952C8 19.0956 8.44772 18.6905 9 18.6905C9.55228 18.6905 10 19.0956 10 19.5952ZM21 19.5952C21 20.0949 20.5523 20.5 20 20.5C19.4477 20.5 19 20.0949 19 19.5952C19 19.0956 19.4477 18.6905 20 18.6905C20.5523 18.6905 21 19.0956 21 19.5952Z" stroke="#181D27" stroke-width="1.3" stroke-linecap="round" stroke-linejoin="round"/>
</svg>
