<svg width="15" height="15" viewBox="0 0 15 15" fill="none" xmlns="http://www.w3.org/2000/svg">
<g clip-path="url(#clip0_707_2651)">
<path d="M11.81 10.5H11.8773C12.2499 10.5 12.5917 10.7072 12.764 11.0377L13.9273 13.2688C14.1009 13.6017 13.8594 14 13.484 14H1.50921C1.13542 14 0.893794 13.6048 1.06416 13.2721L2.20497 11.0442C2.37603 10.7102 2.71975 10.5 3.09506 10.5H3.16003" stroke="#008000" stroke-linecap="round" stroke-linejoin="round"/>
<path d="M7.5585 1H7.44091C4.99486 1 2.96468 2.89034 2.79041 5.33018C2.7055 6.51892 2.97376 7.72509 3.69582 8.67323C4.59833 9.85832 5.51468 10.6785 6.96296 11.6488C7.28734 11.8661 7.71208 11.8661 8.03646 11.6488C9.48474 10.6785 10.4011 9.85832 11.3036 8.67323C12.0256 7.72509 12.2939 6.51892 12.209 5.33018C12.0347 2.89034 10.0045 1 7.5585 1Z" stroke="#008000" stroke-linecap="round" stroke-linejoin="round"/>
<path d="M7.5 7C8.46 7 9 6.46 9 5.5C9 4.54 8.46 4 7.5 4C6.54 4 6 4.54 6 5.5C6 6.46 6.54 7 7.5 7Z" stroke="#008000" stroke-linecap="round" stroke-linejoin="round"/>
</g>
<defs>
<clipPath id="clip0_707_2651">
<rect width="14" height="14" fill="white" transform="translate(0.5 0.5)"/>
</clipPath>
</defs>
</svg>
