<svg width="34" height="31" viewBox="0 0 34 31" fill="none" xmlns="http://www.w3.org/2000/svg">
<rect width="31" height="31" transform="matrix(-1 0 0 1 31.5 0)" fill="white"/>
<path d="M24.3179 6.78125C29.4543 6.78125 33.6379 11.0945 33.6379 16.4019C33.6379 21.7094 29.4543 26.0226 24.3179 26.0226H9.82005C4.68678 26.0226 0.500008 21.7008 0.500008 16.4019C0.500008 11.1031 4.68678 6.78125 9.82005 6.78125H24.3179ZM9.82005 8.91918C5.80311 8.91918 2.57113 12.2554 2.57113 16.4019C2.57113 20.5485 5.80311 23.8847 9.82005 23.8847C13.837 23.8847 17.069 20.5485 17.069 16.4019C17.069 12.2554 13.837 8.91918 9.82005 8.91918Z" fill="#666666"/>
</svg>
