<svg width="66" height="71" viewBox="0 0 66 71" fill="none" xmlns="http://www.w3.org/2000/svg">
<path d="M1.22477 68.9155C3.50584 71.4487 8.57179 70.2305 15.3222 65.5591C19.3515 62.8132 33.9618 48.8427 39.1009 42.8161C50.4117 29.6924 55.3275 23.2732 60.4441 15.1771C66.1655 6.04377 66.75 4.23604 64.5179 1.65643C63.4255 0.367455 62.8186 0.105711 61.1146 0.0462069C56.9967 -0.0975957 52.7763 2.68968 46.51 9.78341C44.5378 11.9757 43.8094 12.4794 42.1917 12.6635C39.4769 13.0498 37.4201 14.9504 33.2294 20.962C28.7885 27.3497 27.4146 28.6969 25.3319 28.6242C22.2553 28.5168 17.6553 34.033 15.6368 40.2648C14.7349 43.0236 14.0286 44.2497 12.5582 45.6417C10.8429 47.2656 10.4575 47.4446 8.99854 47.1531C7.63428 46.8649 7.15592 46.9925 6.17234 48.0166C3.17597 51.039 0.392134 58.8317 0.190779 64.5977C0.0968137 67.2885 0.266012 67.8717 1.22477 68.9155ZM1.96118 60.0411C3.39487 54.2699 6.33986 48.6478 7.90185 48.7024C8.13851 48.7106 8.28757 49.8704 8.28792 51.2175C8.23926 52.611 8.40881 54.5412 8.70826 55.4658C9.17691 56.9735 9.40686 57.174 10.8268 57.2236C12.1995 57.2715 12.5866 57.0445 13.3486 55.5797C13.9011 54.6849 14.607 52.1117 14.9226 49.8616C16.5664 39.4313 17.9719 35.8241 22.0381 32.0211L24.3906 29.794L24.772 33.8004C25.3397 39.2565 26.7332 41.422 28.9035 40.3432C30.3503 39.6239 31.4111 36.3896 32.1381 30.4976C33.0001 23.4557 34.2368 20.6123 37.7216 17.1739L40.4696 14.4796L40.7781 17.858C41.0732 21.6208 42.2032 24.5468 43.3781 24.8284C44.4127 25.0569 45.9388 23.4264 46.6296 21.2856C46.9472 20.3345 47.5245 17.3719 47.9008 14.7391C48.4037 11.1966 48.9391 9.43525 49.8431 7.97544C51.9012 4.67969 57.7966 1.42172 61.4903 1.50259C63.8096 1.58359 64.4437 2.42358 64.3414 5.35466C64.2709 7.37277 60.9506 12.8856 54.127 22.3653C43.3205 37.3347 24.4738 57.2672 14.4632 64.3745C6.98093 69.6457 3.06439 70.5192 1.76186 67.1061C0.978662 65.1063 1.02061 63.905 1.96118 60.0411ZM9.75622 48.5266C9.99792 48.3907 10.2245 48.6873 10.2061 49.2158C10.1859 49.7924 9.93416 50.2166 9.6975 50.2083C9.4135 50.1984 9.23423 49.9035 9.24766 49.5191C9.26108 49.1347 9.46719 48.6608 9.75622 48.5266ZM10.4431 50.5711C11.0355 47.1761 11.8419 47.1561 11.3441 50.5545C10.7889 54.2395 10.5203 55.1442 9.96576 54.7399C9.73413 54.5875 9.60891 54.1021 9.76601 53.6746C9.92479 53.199 10.2084 51.8619 10.4431 50.5711ZM11.8073 50.8593C12.0621 48.992 12.4015 47.4162 12.5908 47.4228C12.7801 47.4294 12.7298 48.871 12.4784 50.6422C12.178 52.4599 11.9688 54.3769 11.9487 54.9535C11.8796 55.5765 11.6261 56.0488 11.3421 56.0388C11.0581 56.0289 10.9769 55.6412 11.1357 55.1657C11.2454 54.7365 11.5982 52.7764 11.8073 50.8593ZM13.5764 47.6978L14.0054 46.2695L13.9551 47.711C13.9282 48.4798 13.697 49.6745 13.4841 50.3406L13.0635 51.5286L13.1055 50.3273C13.129 49.6546 13.3602 48.46 13.5764 47.6978ZM26.2756 30.1004C26.8268 30.6007 26.9688 30.6057 26.9923 29.933C27.0074 29.5006 27.2084 29.1708 27.4924 29.1807C28.0131 29.1989 27.95 33.7189 27.4267 36.491C26.8527 39.3575 26.2354 38.037 26.3662 34.2891C26.4501 31.8865 26.3367 31.0647 25.9886 31.5337C25.6371 32.0987 25.5018 31.9015 25.5387 30.8444C25.579 29.6912 25.6787 29.5504 26.2756 30.1004ZM29.2773 28.2809C29.9145 27.6777 29.9484 28.0638 29.5859 31.6593C28.9702 37.0741 28.5601 39.3209 28.1341 39.306C27.9447 39.2994 27.9306 36.9897 28.1733 34.1116C28.4445 30.4167 28.7382 28.7913 29.2773 28.2809ZM30.3626 28.415C30.4012 27.3098 30.6224 26.4035 30.9064 26.4134C31.4271 26.4316 30.7595 33.336 30.0448 34.8024C29.7863 35.4188 29.7118 34.8389 29.9615 33.1157C30.1539 31.6791 30.3223 29.5682 30.3626 28.415ZM42.574 13.9277C43.2434 13.7586 43.3018 17.5131 42.66 19.6075L42.2867 20.7972L41.9974 19.5844C41.5405 17.7403 41.903 14.1448 42.574 13.9277ZM44.5009 13.0328C44.8356 12.9482 45.1078 13.2945 45.1384 13.7767C45.1216 14.2572 45.37 13.9291 45.6369 13.0724C45.9021 12.2638 46.3532 11.558 46.5899 11.5662C47.1579 11.5861 47.1545 11.6822 46.3798 16.2255C45.492 21.294 44.8447 22.1855 44.8877 18.242L44.9021 15.1155L44.3976 18.706C43.5876 24.2584 43.3999 24.2037 43.6469 18.4874C43.8725 14.7427 44.1172 13.1637 44.5009 13.0328Z" fill="#F86B1C" fill-opacity="0.4"/>
</svg>
