<svg width="81" height="70" viewBox="0 0 81 70" fill="none" xmlns="http://www.w3.org/2000/svg">
<path d="M66.7364 0.667931C66.5843 1.11977 66.4321 1.82263 66.4321 2.27447C66.4321 2.6761 65.215 4.08182 63.7951 5.38712C62.3245 6.74264 60.1946 9.10223 59.079 10.6084C57.5069 12.7671 56.5434 13.5704 54.8192 14.1729C51.4215 15.3778 51.2694 15.3276 51.8272 12.8173C52.4865 9.9055 54.1599 6.54182 55.3263 5.88917C56.3912 5.33692 56.5941 3.9312 55.6813 3.02753C54.8699 2.22426 54.5149 2.27447 53.5514 3.22835C52.9429 3.78059 52.8921 4.23243 53.2471 4.93529C53.6021 5.58794 53.45 6.39121 52.5372 8.04795C51.8272 9.20264 51.0158 11.512 50.6101 13.1186L49.9509 16.0304L45.2347 18.5406C42.6484 19.8961 40.3157 20.9002 40.0621 20.7496C38.6929 19.8961 40.7214 16.7835 42.6484 16.7333C43.5105 16.7333 43.9162 16.3818 44.0176 15.5786C44.2712 13.7712 42.6484 13.5704 41.2285 15.1769C39.7579 16.9341 39.5043 16.7333 39.91 14.2733C40.1128 12.968 40.5185 12.2651 41.1778 12.0643C41.7356 11.9639 42.0906 11.4116 42.0906 10.6586C42.0906 9.25285 41.3806 8.7508 39.7579 9.15244C38.4901 9.50387 38.1351 10.8594 39.0479 11.7631C39.3522 12.0643 39.3522 12.9178 38.9972 14.2231C38.6929 15.3276 38.5408 17.5365 38.6422 19.1431L38.845 22.1051L34.1289 25.6696C31.4919 27.6778 29.2099 29.3345 28.9563 29.4349C28.7534 29.4851 28.1449 28.1798 27.6378 26.4729L26.6743 23.4104L27.8913 21.2014C28.7534 19.6451 29.4634 18.9925 30.2241 18.9925C31.5933 18.9925 32.2525 17.5365 31.289 16.6329C30.2748 15.5786 29.1084 16.3316 28.1956 18.5908C27.1814 21.1512 26.6236 20.7998 27.08 17.888C27.3335 16.2814 27.7392 15.5786 28.5506 15.2271C30.0212 14.5745 30.2748 12.7169 29.007 12.0141C27.7392 11.3112 26.6743 12.4659 26.5221 14.6749C26.3193 18.2896 25.7108 22.0047 25.3558 22.0047C25.1529 22.0047 24.1894 20.2476 23.1752 18.0888C20.2846 11.7631 18.9661 5.43733 20.3353 4.08182C20.6396 3.78059 20.7917 3.02753 20.6903 2.37488C20.5889 1.52141 20.1832 1.11977 19.169 1.01936C17.4955 0.81855 16.7348 2.52548 17.9519 3.881C18.4083 4.38304 18.7633 5.53774 18.7633 6.49162C18.7633 11.1606 22.0595 20.2476 25.1529 24.3141C25.8122 25.1676 26.37 26.1717 26.37 26.5733C26.4207 26.9749 26.725 28.0794 27.08 29.0333L27.6885 30.8406L22.5159 36.0619L17.2926 41.2831L16.6334 39.777C16.2784 38.9235 16.0248 35.9615 15.9741 32.397C15.9741 27.2259 16.0756 26.3725 16.8869 25.9708C18.104 25.268 18.0026 23.1594 16.6841 22.7578C14.9092 22.1553 14.5035 23.2096 14.5542 28.2802C14.6049 30.8909 14.4528 33.15 14.1992 33.3006C13.4893 33.7525 12.1708 28.6317 11.8158 24.1133C11.5622 20.6492 11.6637 19.8459 12.3736 19.0427C13.6414 17.6871 13.2357 16.2814 11.5115 16.0806C9.88875 15.8798 9.2295 16.9843 10.0409 18.641C10.3452 19.2435 10.7001 21.9043 10.8016 24.5149C11.0551 29.5353 11.9679 32.6982 13.9457 35.5598C14.6049 36.5137 15.467 38.4717 15.9234 39.9276L16.6841 42.5382L14.3007 45.5003C12.9822 47.157 11.1565 49.5668 10.2437 50.8721C8.82381 52.8301 8.46883 53.1313 7.80958 52.5791C6.54179 51.5248 5.52756 48.6631 6.08539 47.6088C6.64321 46.5546 5.42614 44.8978 4.36119 45.2492C3.65123 45.4501 3.29625 47.6088 3.90479 48.0607C4.15835 48.2113 5.07115 49.868 6.03467 51.7256L7.70816 55.0893L6.69392 56.495C4.8176 59.1558 0 68.3432 0 69.297C0 70.753 0.963519 69.8493 2.02846 67.4897C2.83985 65.5819 3.14412 65.3309 5.57827 64.7285C7.0489 64.377 10.548 62.8709 13.3878 61.4652C16.177 60.0595 18.9154 58.9048 19.4732 58.9048C20.6396 58.9048 21.5524 57.5493 21.1467 56.4448C20.6396 55.1897 18.3576 55.3905 18.0026 56.7962C17.749 57.6497 16.3291 58.6538 12.5258 60.5615C9.68591 62.0174 6.5925 63.4232 5.67969 63.6742C3.54981 64.2264 3.60052 64.126 7.20104 58.1517C10.8016 52.1774 12.6272 49.9684 13.6414 50.3701C14.0978 50.5709 16.532 51.2737 19.0168 51.9766C21.5524 52.6795 23.9866 53.5831 24.443 53.9848C25.5586 54.9386 27.08 54.6374 27.2828 53.4325C27.5871 52.077 26.015 51.0227 24.7472 51.6754C24.088 52.0268 22.6681 51.8762 19.6254 51.0227L15.467 49.9182L18.0026 49.5166C19.5239 49.3158 20.741 49.366 21.1467 49.6672C22.1609 50.5207 23.9359 49.7174 23.733 48.4623C23.5809 47.2072 21.6538 46.7052 20.5382 47.6088C19.5747 48.4121 14.1992 48.9141 14.1992 48.2113C14.1992 46.7554 23.4794 36.5639 24.7472 36.5639C25.2544 36.5639 26.8264 37.4676 28.297 38.5219C29.717 39.6264 32.3033 41.0321 34.0274 41.6847C35.7009 42.2872 37.3237 43.2411 37.5773 43.6929C38.1858 44.7472 39.2 44.8476 40.0114 43.9439C40.9242 42.8394 39.4536 41.3835 37.4251 41.3333C36.4616 41.2831 34.0782 40.4798 32.1511 39.526L28.652 37.819L31.3397 37.6684C33.4189 37.568 34.2303 37.7186 34.6867 38.3713C35.4981 39.4758 37.2223 39.0741 37.4251 37.7688C37.6787 36.1623 36.2588 35.2586 34.7374 36.0619C33.3175 36.8149 25.8122 36.1623 25.5079 35.2586C25.4065 34.9574 26.8264 33.4011 28.6013 31.7945L31.9483 28.9329L33.8246 29.6859C34.8895 30.0876 37.1209 30.69 38.7436 31.0415C40.4171 31.3929 42.0906 31.9451 42.4963 32.3468C43.4091 33.2504 44.3219 33.2504 45.1333 32.2966C46.4011 30.7904 44.3219 28.8325 42.5977 29.937C41.6849 30.4892 37.0194 29.7864 34.0782 28.6819C32.9625 28.2802 32.9625 28.1798 33.8246 27.477C34.3317 27.0251 36.5123 25.4688 38.6929 24.0129C41.482 22.1553 42.902 21.4525 43.3077 21.8039C48.7845 25.8202 50.5087 27.2761 50.813 28.0794C51.3708 29.5855 54.2614 29.1839 54.2614 27.5774C54.2614 26.3223 53.2471 25.519 51.6751 25.519C50.3059 25.519 44.119 21.8039 44.119 20.9504C44.119 20.6994 45.4883 19.8459 47.1617 18.9925L50.2044 17.4863L52.8921 20.097C56.6448 23.8121 60.7524 26.3725 65.8236 28.1798C68.2577 29.0333 70.5905 30.188 71.0469 30.7402C72.2132 32.146 73.6332 31.4933 73.4303 29.6859C73.2782 28.3806 73.126 28.2802 70.6919 28.2802C68.6127 28.2802 67.1421 27.7782 63.3387 25.9206C58.4704 23.5108 54.5656 20.7496 55.022 19.9965C55.4277 19.3439 61.4624 20.85 61.9695 21.7035C62.6288 22.8582 64.4037 22.7578 64.4037 21.5529C64.4037 20.3982 63.5923 19.7455 62.1216 19.7455C59.5861 19.6953 53.1964 18.2896 52.6386 17.6369C51.8779 16.7333 52.4865 16.2814 56.1377 15.1267L58.7747 14.3235L62.2738 15.8798C64.2008 16.7835 66.0264 17.4863 66.3307 17.4863C66.635 17.4863 67.1421 17.9382 67.4464 18.4904C68.1056 19.6953 70.3876 19.8459 70.844 18.6912C71.4019 17.1851 70.2862 16.2312 67.9028 16.2312C65.7222 16.181 60.8539 14.6749 60.8539 13.972C60.8539 13.5704 67.6999 11.9639 69.3734 11.9639C71.0976 11.9639 74.0896 14.1729 74.901 15.9802C75.4081 17.1851 75.8138 17.5365 76.6759 17.3859C78.2479 17.1851 78.4001 14.3235 76.828 14.0724C75.4588 13.8716 72.5175 12.3153 72.5175 11.8635C72.5175 11.1104 77.0816 11.4116 77.3858 12.1647C77.9944 13.6708 80.2764 13.6206 80.8342 12.1145C81.4935 10.4577 80.2764 10.0561 75.5602 10.3573C73.0246 10.4577 70.9962 10.4577 70.9962 10.3071C70.9962 9.70468 73.9881 8.44958 75.1545 8.60019C76.0166 8.6504 76.3716 8.39938 76.473 7.64631C76.6759 6.08998 75.0024 5.58794 74.0896 6.89325C73.7346 7.4957 73.1768 7.94754 72.8725 7.94754C72.5682 7.94754 71.3004 8.60019 69.9819 9.45366C67.9535 10.7088 60.0932 12.8675 59.4846 12.3153C59.1297 11.9137 61.7667 10.0561 63.6937 9.30305C65.1643 8.7508 65.925 8.65039 66.3307 9.05203C66.99 9.70468 68.9677 9.10223 68.9677 8.24876C68.9677 7.84713 68.6127 7.29488 68.207 6.94345C67.5478 6.39121 67.0407 6.49162 65.3672 7.39529C64.2515 8.04795 63.1866 8.39938 62.9837 8.19856C62.4259 7.64631 66.8885 4.03161 68.3084 3.8308C70.0326 3.62998 70.9454 2.22427 70.1848 1.01936C69.4241 -0.13533 67.1421 -0.38636 66.7364 0.667931ZM69.4748 2.22427C69.4748 3.02753 68.1563 3.17814 67.6999 2.42508C67.5478 2.12386 67.4971 1.72222 67.6999 1.421C68.1056 0.768341 69.4748 1.3708 69.4748 2.22427ZM19.7775 2.6761C19.7775 3.07774 19.4225 3.42916 19.0168 3.42916C18.2054 3.42916 18.0026 2.82671 18.6111 2.27447C19.169 1.67202 19.7775 1.87283 19.7775 2.6761ZM55.2756 4.43324C55.2756 4.68427 55.0727 4.93529 54.7685 4.93529C54.5149 4.93529 54.2614 4.68427 54.2614 4.43324C54.2614 4.13202 54.5149 3.93121 54.7685 3.93121C55.0727 3.93121 55.2756 4.13202 55.2756 4.43324ZM41.0764 10.3573C41.0764 11.01 40.4678 11.4618 39.9607 11.1606C39.4536 10.8594 39.91 9.9557 40.6199 9.9557C40.8735 9.9557 41.0764 10.1565 41.0764 10.3573ZM79.6171 11.7129C79.6171 12.1647 79.3129 12.3153 78.8565 12.1647C78.4508 11.9639 78.0958 11.6626 78.0958 11.4116C78.0958 11.1606 78.4508 10.9598 78.8565 10.9598C79.2621 10.9598 79.6171 11.3112 79.6171 11.7129ZM28.9056 13.4198C28.9056 14.0222 27.8913 14.6749 27.5364 14.3235C27.1814 13.972 27.8406 12.968 28.4492 12.968C28.7027 12.968 28.9056 13.1688 28.9056 13.4198ZM43.1048 15.4782C43.1048 15.7292 43.0034 15.9802 42.902 15.9802C42.7498 15.9802 42.4963 15.7292 42.3441 15.4782C42.192 15.1769 42.2934 14.9761 42.547 14.9761C42.8513 14.9761 43.1048 15.1769 43.1048 15.4782ZM77.0816 15.7292C77.0816 16.1308 76.8787 16.4822 76.6251 16.4822C75.9659 16.4822 75.5095 15.679 75.9152 15.2773C76.473 14.7251 77.0816 14.9761 77.0816 15.7292ZM11.9172 17.4863C12.0693 17.7374 11.8665 17.9884 11.4101 17.9884C10.9537 17.9884 10.7508 17.7374 10.903 17.4863C11.0551 17.1851 11.3087 16.9843 11.4101 16.9843C11.5115 16.9843 11.7651 17.1851 11.9172 17.4863ZM69.5762 17.7374C69.5762 17.9884 69.3227 18.2896 69.0184 18.39C68.7141 18.4904 68.4606 18.1892 68.4606 17.7374C68.4606 17.2855 68.7141 16.9843 69.0184 17.0847C69.3227 17.1851 69.5762 17.4863 69.5762 17.7374ZM16.7348 24.5149C16.7348 24.7659 16.3798 25.017 15.9234 25.017C15.5177 25.017 15.3149 24.7659 15.467 24.5149C15.6192 24.2137 15.9741 24.0129 16.2784 24.0129C16.532 24.0129 16.7348 24.2137 16.7348 24.5149ZM53.1457 27.4268C53.2471 27.7782 52.9936 28.0292 52.5372 28.0292C52.0808 28.0292 51.7258 27.6778 51.7258 27.2259C51.7258 26.3725 52.8414 26.5231 53.1457 27.4268ZM72.5175 29.5353C72.5175 29.7864 72.3147 30.0374 72.0104 30.0374C71.7568 30.0374 71.5033 29.7864 71.5033 29.5353C71.5033 29.2341 71.7568 29.0333 72.0104 29.0333C72.3147 29.0333 72.5175 29.2341 72.5175 29.5353ZM44.119 31.2925C44.119 31.6941 43.9162 32.0455 43.6119 32.0455C43.3584 32.0455 43.1048 31.6941 43.1048 31.2925C43.1048 30.8908 43.3584 30.5394 43.6119 30.5394C43.9162 30.5394 44.119 30.8908 44.119 31.2925ZM36.5123 37.6182C36.5123 37.8692 36.3095 38.07 36.0052 38.07C35.7516 38.07 35.4981 37.7186 35.4981 37.2668C35.4981 36.8651 35.7516 36.6643 36.0052 36.8149C36.3095 36.9656 36.5123 37.317 36.5123 37.6182ZM39.0479 43.0905C39.0479 43.3415 38.9465 43.5925 38.845 43.5925C38.6929 43.5925 38.4394 43.3415 38.2872 43.0905C38.1351 42.7892 38.2365 42.5884 38.4901 42.5884C38.7943 42.5884 39.0479 42.7892 39.0479 43.0905ZM22.8202 48.6129C22.8202 48.8639 22.6173 49.115 22.3638 49.115C22.0595 49.115 21.7045 48.8639 21.5524 48.6129C21.4003 48.3117 21.6031 48.1109 22.0088 48.1109C22.4652 48.1109 22.8202 48.3117 22.8202 48.6129ZM26.37 53.1313C26.37 53.3823 26.015 53.6333 25.6093 53.6333C25.2036 53.6333 24.8487 53.3823 24.8487 53.1313C24.8487 52.8301 25.2036 52.6293 25.6093 52.6293C26.015 52.6293 26.37 52.8301 26.37 53.1313ZM20.2846 57.4489C20.2846 58.3023 19.169 58.1517 18.8647 57.248C18.7633 56.8966 19.0168 56.6456 19.4732 56.6456C19.9296 56.6456 20.2846 56.997 20.2846 57.4489Z" fill="#F86B1C" fill-opacity="0.4"/>
</svg>
