<svg width="84" height="57" viewBox="0 0 84 57" fill="none" xmlns="http://www.w3.org/2000/svg">
<path d="M17.2959 0.471764C26.9226 0.897964 34.1698 1.53727 45.419 3.08226C49.5834 3.61501 55.8029 4.36087 59.2101 4.68052C66.4573 5.3731 76.6248 7.02464 80.6811 8.1967C82.8985 8.78273 83.6015 9.26221 83.872 10.2744C84.2505 11.8194 83.8179 12.5653 82.1954 13.2046C80.8433 13.6841 80.3025 16.188 80.3025 21.7287C80.3025 24.5523 80.4106 24.8186 81.6546 25.1383C82.4117 25.3514 83.0066 25.7776 83.0066 26.1505C83.0066 27.0562 69.6481 34.9942 61.103 39.203C57.5336 40.9611 51.0977 43.7314 46.7711 45.4362C42.4444 47.141 38.0096 48.9524 36.928 49.4852C34.6565 50.6039 33.7912 50.7638 33.7912 49.9646C33.7912 49.2188 36.6035 47.9402 46.2302 44.1043C50.8273 42.293 58.1285 39.0432 62.4551 36.8589C70.6216 32.81 80.3025 27.1095 80.3025 26.4169C80.3025 25.4579 78.7341 26.0972 75.9218 28.175C71.9196 31.1051 63.4286 35.2606 38.9291 46.0755C33.7912 48.3664 31.087 49.1655 31.087 48.4197C31.087 48.2066 34.5483 46.5017 38.7668 44.6371C57.9662 36.113 72.3523 29.1872 74.8942 27.1628C76.4085 25.9907 77.9228 24.9252 78.2473 24.8186C78.5177 24.7121 78.7341 24.2326 78.6259 23.7531C78.4637 23.0605 76.1381 23.9662 67.0522 28.3348C60.7785 31.265 53.261 34.8344 50.2865 36.2196C47.3119 37.6047 41.6873 40.2152 37.8474 41.9733C29.789 45.7559 28.7074 46.0755 29.1941 44.6904C29.6809 43.0388 25.192 41.6537 24.2185 43.1454C24.0022 43.5183 23.245 44.1576 22.5419 44.5305C21.5144 45.1166 21.3521 45.0633 21.3521 44.1576C21.3521 42.6659 22.2174 42.1332 31.7901 37.9777C36.6035 35.8999 45.7976 31.7977 52.1794 28.9208C58.5612 26.044 67.3226 22.2081 71.6492 20.3435C78.6259 17.4134 79.4912 16.8806 79.6535 15.6553C79.7617 14.9094 79.5994 14.2701 79.3831 14.2701C78.3555 14.2701 63.699 19.7042 59.3724 21.7287C56.8305 22.9007 53.2069 24.9252 51.314 26.2571C47.366 29.0807 43.9047 30.6257 38.1178 32.3305C35.9004 33.0231 32.7095 34.2484 30.9789 35.1008C28.6533 36.2729 27.8421 36.486 27.8421 35.8999C27.8421 34.6746 30.9789 33.1296 38.1719 30.7855C43.472 29.1339 45.9058 28.0152 48.9344 25.8841C54.4509 22.1016 62.2388 18.5854 73.0013 15.016C78.031 13.3644 82.4117 11.7662 82.6821 11.5531C84.3587 10.1146 81.1678 10.967 69.7022 15.016C57.2091 19.4911 54.4509 20.7164 46.4466 25.4047C42.2281 27.8553 27.139 34.5148 25.7869 34.5148C25.3002 34.5148 23.3532 36.113 21.4603 38.0842C18.053 41.6537 17.999 41.6537 18.8643 39.5759C19.351 38.4571 20.1623 37.072 20.5949 36.5392C21.7307 35.3139 28.2747 32.0641 36.3872 28.6545C40.0648 27.1095 45.0404 24.6055 47.4742 23.1671C53.5314 19.5444 58.2367 17.4666 68.4042 14.057C73.1635 12.4055 77.7065 10.7539 78.5177 10.3277L79.978 9.58186L77.8687 8.99583C74.7319 8.14342 63.2664 6.54516 45.1486 4.41414C25.2461 2.07003 19.8378 1.53727 12.807 1.43072C6.20889 1.32417 6.37114 1.21762 4.37007 7.61067C2.36901 14.0037 1.93634 16.188 1.55776 21.995C0.800606 33.2894 3.72108 41.2807 11.3468 48.686C13.7805 51.0834 16.2683 53.321 16.9173 53.6406C18.1071 54.28 18.1071 54.2267 18.1071 50.0179C18.1071 47.6738 18.3235 45.5961 18.648 45.4362C18.9725 45.2231 19.1888 46.4485 19.2429 48.7393C19.297 50.7105 19.4592 53.0546 19.6755 53.9603C20 55.3987 20.2164 55.5586 21.7848 55.3987C24.2726 55.1324 23.9481 56.1979 21.4062 56.6241C18.9725 56.997 17.7286 56.3577 12.4284 51.8293C6.64156 46.9279 2.53126 40.4283 0.746521 33.4493C-0.443306 28.8143 -0.17289 18.692 1.28735 13.2579C3.50475 4.9469 5.50581 1.00452 7.83138 0.365211C8.26405 0.205383 12.5366 0.311935 17.2959 0.471764ZM76.5167 19.4378C76.3544 19.5976 76.733 20.0771 77.3279 20.5033C78.4096 21.3557 78.4096 21.3557 77.3279 20.9295C75.1105 20.1304 74.3534 20.0238 74.3534 20.5033C74.3534 20.7697 75.0024 21.3025 75.7595 21.6754C76.9493 22.2081 77.382 22.1549 78.1932 21.409C78.7882 20.9295 79.2208 20.0238 79.2208 19.4911C79.2208 18.692 78.9504 18.5321 77.9769 18.8518C77.3279 19.0116 76.6789 19.3313 76.5167 19.4378ZM71.6492 21.6754C71.6492 22.3147 74.8942 23.3802 75.5432 22.954C76.2463 22.5811 73.9748 21.2492 72.5686 21.1959C72.0819 21.1959 71.6492 21.409 71.6492 21.6754ZM69.4859 22.6876C69.4859 23.2204 72.839 24.4457 73.2176 24.0728C73.7044 23.6466 71.5951 22.2614 70.4594 22.2614C69.9186 22.2614 69.4859 22.4745 69.4859 22.6876ZM67.8093 24.0728C68.5665 24.9785 70.4594 25.5112 70.838 24.9252C71.2166 24.3392 69.54 23.3802 68.1879 23.3269C67.3767 23.3269 67.3226 23.4868 67.8093 24.0728ZM65.9164 25.1916C66.5113 25.6178 67.4848 25.9907 68.0797 25.9907C69.2155 25.9374 69.2155 25.9374 68.1879 25.1916C67.593 24.7654 66.6195 24.3924 66.0246 24.3924C64.8889 24.4457 64.8889 24.4457 65.9164 25.1916ZM62.9959 25.9374C62.9959 26.5235 66.0246 27.6422 66.4573 27.216C66.6195 27.0029 66.5113 26.5767 66.1868 26.1505C65.4838 25.3514 62.9959 25.1916 62.9959 25.9374ZM61.049 27.3226C61.6439 27.7488 62.7255 28.1217 63.4827 28.1217C64.8348 28.0684 64.8348 28.0684 63.8613 27.3226C63.2664 26.8964 62.1847 26.5235 61.4275 26.5235C60.0755 26.5767 60.0755 26.5767 61.049 27.3226ZM58.1285 28.0684C58.1285 28.761 61.2653 29.7733 61.6439 29.1872C62.0225 28.6012 60.4 27.6422 59.0479 27.589C58.5611 27.589 58.1285 27.8021 58.1285 28.0684ZM56.1815 29.4536C56.7764 29.8798 57.8581 30.2527 58.6152 30.2527C59.9673 30.1995 59.9673 30.1995 58.9938 29.4536C58.3989 29.0274 57.3172 28.6545 56.5601 28.6545C55.208 28.7077 55.208 28.7077 56.1815 29.4536ZM53.261 30.1995C53.261 30.8388 54.6672 31.3182 56.3978 31.3182C57.804 31.265 57.804 31.265 56.8305 30.5191C55.6407 29.6667 53.261 29.4536 53.261 30.1995ZM50.8814 31.265C50.4487 31.9043 53.6396 32.9698 54.7213 32.5436C55.4784 32.2239 55.3703 32.0641 54.0723 31.5313C52.1253 30.6789 51.26 30.6257 50.8814 31.265ZM48.1772 32.3305C47.7446 33.0231 50.9355 34.1418 52.0171 33.7156C52.8824 33.396 52.8284 33.2894 51.6385 32.6501C50.0701 31.7977 48.6099 31.6379 48.1772 32.3305ZM45.1486 33.9287C45.1486 34.568 46.5547 35.0475 48.5558 35.0475C50.1783 34.9942 50.2324 34.9942 49.2589 34.2484C48.0691 33.396 45.1486 33.1829 45.1486 33.9287ZM42.9853 34.9942C42.9853 35.6336 45.7435 36.5392 46.717 36.2196C47.2578 36.0598 47.0956 35.7401 46.1762 35.2606C44.6618 34.4615 42.9853 34.3017 42.9853 34.9942ZM40.2811 35.8467C40.2811 35.9532 41.0383 36.486 41.9036 36.9122C43.9047 37.9244 45.3649 37.3384 43.472 36.3261C42.174 35.6336 40.2811 35.3139 40.2811 35.8467ZM38.1178 37.072C38.1178 37.7646 41.8495 38.7768 42.2281 38.1908C42.5526 37.658 40.6056 36.7523 39.0372 36.6991C38.5505 36.6458 38.1178 36.8589 38.1178 37.072ZM35.4137 38.1375C35.4137 38.3506 36.279 38.8834 37.3066 39.2563C39.6321 40.0554 40.9842 39.4694 39.1454 38.4571C37.6852 37.658 35.4137 37.4982 35.4137 38.1375ZM32.7095 39.2563C32.7095 39.7358 35.5759 40.9078 36.8198 40.9078C38.0096 40.9078 37.6852 40.0554 36.3331 39.4161C34.8728 38.7235 32.7095 38.617 32.7095 39.2563ZM30.2758 40.4283C29.735 41.2275 30.1676 41.4938 32.6554 41.8135C35.0892 42.1332 35.63 41.4406 33.6289 40.4816C32.0605 39.7358 30.7085 39.6825 30.2758 40.4283ZM27.3012 41.8668C27.3012 42.5061 31.1411 43.6249 31.7901 43.1987C32.0605 43.0388 31.736 42.5594 31.033 42.1864C29.5727 41.3873 27.3012 41.2275 27.3012 41.8668Z" fill="#F86B1C" fill-opacity="0.4"/>
</svg>
