<svg width="56" height="75" viewBox="0 0 56 75" fill="none" xmlns="http://www.w3.org/2000/svg">
<path d="M33.8978 70.909C36.6513 70.917 41.5101 68.8409 42.3119 67.2672C42.6386 66.6261 43.3192 66.8994 45.3007 68.2762C52.3991 73.0676 55.5643 74.9006 55.9206 74.2012C56.0988 73.8515 55.1823 73.0174 53.7328 72.2054C52.3719 71.512 49.71 69.7152 47.7878 68.2219C43.973 65.3237 43.9435 65.2353 46.2035 58.8983C47.4224 55.6283 47.2218 51.3414 45.9201 50.6781C45.2101 50.3163 44.8542 50.7223 44.2294 52.6799C43.783 54.141 42.8928 55.4494 42.0628 56.0544C41.2923 56.5428 40.2243 57.9074 39.66 59.0149C38.6503 60.9965 38.6206 61.0548 36.7576 59.5917C35.6633 58.8138 34.0372 57.3246 33.0321 56.3719L31.2584 54.5872L33.9312 49.3415C36.01 45.2616 36.5751 43.5673 36.3704 41.9212C36.1077 39.5115 34.9831 39.2321 33.9139 41.3303C33.4982 42.1463 32.2822 43.509 31.2149 44.4335C30.1773 45.2997 28.8128 46.9538 28.2782 48.0029L27.2685 49.9846L24.1661 45.8343C22.4228 43.5511 21.2419 41.3343 21.4795 40.868C21.7171 40.4017 23.1401 39.218 24.6515 38.2995C27.5263 36.4605 31.2065 30.7003 29.964 30.0672C29.0764 29.615 20.4834 34.0466 19.8598 35.2706C19.0282 36.9026 18.4075 36.2193 17.2584 32.6237L16.1975 29.4401L18.5676 28.4452C24.0485 26.1722 27.7854 22.056 27.2277 18.9087C27.052 17.6445 26.6671 17.6686 23.1413 19.3227C21.008 20.2914 18.3411 21.7224 17.3038 22.4419L15.4365 23.7663L15.5899 20.2471C15.7713 17.8434 16.158 16.6455 16.7801 16.4486C17.2244 16.3079 18.1736 15.1764 18.7676 14.0107C19.6585 12.2621 19.661 10.6482 18.927 6.67679C18.3983 3.91126 17.5734 1.28843 17.0411 0.870386C16.2426 0.243314 15.8867 0.649297 13.9564 4.43781C11.5212 9.21717 11.1306 12.9092 12.8739 15.1924C13.7306 16.4365 14.1357 22.5162 13.3062 22.8277C13.1581 22.8257 12.2414 22.1384 11.3545 21.246C10.1131 19.8793 9.07757 19.4251 6.17673 18.9749C2.26958 18.3056 -0.27738 18.7698 0.905081 19.9597C1.28933 20.3757 2.29474 21.1816 3.21151 21.869C4.0988 22.4679 5.96158 24.0778 7.38071 25.3882C9.06599 26.9077 10.6041 27.8382 11.936 28.1498C13.7119 28.4673 14.0962 28.8834 15.0687 31.8016C15.7173 33.6004 16.0698 35.3952 15.8325 35.7148C15.684 36.0062 13.2549 36.8242 10.5597 37.4332C7.7756 38.0703 5.46509 38.8018 5.25743 39.0631C4.75257 40.0539 12.0325 42.2949 15.6742 42.3151L19.3159 42.3352L22.1519 46.4232C24.4266 49.7113 24.751 50.5373 23.7737 50.7001C23.1222 50.8086 21.3739 51.7532 19.8622 52.8184C18.4098 53.9138 16.1577 55.1157 14.8542 55.6261L12.514 56.416L14.1707 57.2601C16.4783 58.4359 21.1861 58.2651 25.5703 56.8281C29.2138 55.6745 29.569 55.7086 31.1656 57.1095C32.1414 57.9737 33.8563 59.4349 35.039 60.478L37.1382 62.3552L35.3877 64.767C34.2898 66.3366 32.7187 67.5184 31.2672 68.0269C29.9045 68.5072 28.749 69.0197 28.6302 69.2529C28.2442 70.0106 31.1146 70.9592 33.8978 70.909ZM35.8887 66.2703C37.6397 63.5651 37.8471 63.4505 39.4447 64.2645C40.6872 64.8976 41.0121 65.4302 40.626 66.1879C40.1211 67.1788 34.2544 70.0629 34.0778 69.3855C34.0188 69.2087 34.8205 67.7817 35.8887 66.2703ZM18.407 55.6744C19.4762 53.5761 24.6014 51.5623 26.4948 52.5271C28.6248 53.6124 27.4387 54.77 23.0847 55.8553C18.9974 56.8562 17.8428 56.7818 18.407 55.6744ZM40.6931 61.083C40.9332 59.0028 44.7594 54.5651 45.1423 55.8615C45.2305 56.2735 44.6646 58.4079 43.8324 60.48C42.5241 64.0716 42.3165 64.3329 41.3997 63.6455C40.8674 63.2275 40.5435 62.108 40.6931 61.083ZM29.4913 48.5476C30.3822 46.7991 33.1989 44.1964 33.8498 44.528C34.4415 44.8295 32.6888 48.5617 30.7014 50.9996C29.4257 52.6256 29.3369 52.6537 29.0725 51.2709C28.985 50.4188 29.1646 49.1887 29.4913 48.5476ZM12.3347 38.3376C15.5636 37.2664 18.7301 38.219 17.8392 39.9676C17.3343 40.9584 12.6562 41.071 10.7628 40.1062C9.2836 39.3525 9.2836 39.3525 12.3347 38.3376ZM20.5383 36.8644C21.251 35.4656 26.2296 32.5695 27.1171 33.0217C27.8271 33.3834 26.1368 35.0918 23.173 37.1056C20.5648 38.8602 19.5583 38.7878 20.5383 36.8644ZM6.02347 22.3474C3.89569 19.7949 4.90314 19.2804 8.5124 21.1194C10.7608 22.265 13.0359 25.2596 12.5014 26.3088C12.0262 27.2413 8.00345 24.7511 6.02347 22.3474ZM17.2693 25.5812C17.4473 25.3782 17.8036 24.6788 18.1303 24.0377C18.457 23.3966 20.1758 22.3635 21.9237 21.7123L25.0342 20.5808L24.2321 22.3012C23.3115 24.1081 18.2142 27.2373 17.4751 26.4937C17.2387 26.2264 17.1505 25.8144 17.2693 25.5812ZM12.9374 12.4349C12.7331 10.4954 15.3789 3.54747 16.1481 3.93939C16.5031 4.12028 17.0925 5.88893 17.6223 7.92087C18.4459 11.424 17.7599 14.6719 16.1603 15.1784C14.9162 15.5723 13.0829 14.0508 12.9374 12.4349Z" fill="#F86B1C" fill-opacity="0.4"/>
</svg>
