<svg width="16" height="20" viewBox="0 0 16 20" fill="none" xmlns="http://www.w3.org/2000/svg">
<path d="M6.1121 13.7778H1.39353V18.5M9.88696 6.22222H14.6055V1.5M1 7.1695C1.52923 5.85903 2.41516 4.72341 3.55711 3.89168C4.69907 3.05995 6.05125 2.56548 7.46 2.46444C8.86874 2.36341 10.2776 2.65987 11.5264 3.32014C12.7751 3.98041 13.8138 4.978 14.5244 6.19956M15 12.8305C14.4709 14.1412 13.5849 15.2771 12.4429 16.109C11.3009 16.9409 9.94851 17.4355 8.53958 17.5365C7.13065 17.6376 5.72166 17.341 4.47276 16.6805C3.22386 16.0201 2.18514 15.0223 1.47469 13.8004" stroke="black" stroke-width="1.3" stroke-linecap="round" stroke-linejoin="round"/>
</svg>
