<svg width="60" height="63" viewBox="0 0 60 63" fill="none" xmlns="http://www.w3.org/2000/svg">
<path d="M41.0579 0.12206C37.5924 0.135478 35.2625 1.05354 33.238 3.22288C32.4963 4.01359 31.6692 4.56222 31.3404 4.40188C29.9433 3.72046 25.8332 4.2212 24.4223 5.23671C23.3945 5.98812 22.0743 6.29625 20.2594 6.26287C16.8958 6.2759 14.9769 7.39438 13.6344 10.1469C12.7065 12.0494 11.215 13.1258 10.1877 12.6248C9.61245 12.3442 6.47041 13.4674 6.49819 13.9319C6.54249 14.1539 6.01472 14.2974 5.32098 14.2597C3.91215 14.1237 3.4303 14.5902 4.19772 15.4155C4.61186 15.8179 4.55423 16.0403 3.88827 16.4671C3.18121 16.8739 2.84995 19.1175 1.82698 29.1411C1.1587 35.8302 0.641936 41.7915 0.733759 42.4375C0.856572 43.7501 3.32483 46.4071 8.16149 50.5699C11.2002 53.2045 12.3737 53.9272 19.1539 57.2341C27.5169 61.3631 31.1825 62.3993 36.9923 62.3768L39.7854 62.3862L46.1926 56.3415C50.2102 52.5888 52.5965 50.0949 52.4684 49.7317C52.3403 49.3686 50.0857 51.1752 46.4892 54.4819C39.8584 60.5679 38.8109 61.3598 40.3045 59.1319L41.3407 57.633L40.1732 58.5668C39.5286 59.0541 38.5435 59.9265 37.9202 60.4744C37.2164 61.0831 36.8514 61.2057 36.8647 60.7613C36.9586 60.2559 36.6528 60.2571 35.8027 60.6442C35.1154 61.0104 34.1783 61.0545 33.4387 60.6937C32.7615 60.4135 31.8425 60.3161 31.4364 60.4187C31.0106 60.5617 30.1936 60.4639 29.6183 60.1833C28.7554 59.7624 28.7308 59.4999 29.3412 58.1441L30.0306 56.6263L28.7905 58.126C27.5701 59.5852 26.6758 59.7503 24.8677 58.8684C24.2102 58.5478 24.3255 58.1029 25.5693 55.5528C26.5564 53.5288 26.7687 52.7806 26.2837 53.0451C25.9203 53.2687 25.0633 54.5043 24.4513 55.7591L23.3062 58.1068L21.0873 57.0246L18.9094 55.9624L23.7085 46.2271L28.5486 36.512L30.1319 36.0816C31.046 35.8761 32.085 35.8316 32.4959 36.0321C33.5643 36.5531 33.7395 38.5928 32.9183 40.7978L32.214 42.659L33.262 40.6147C34.1931 38.9142 34.5944 38.5086 35.6729 38.3833C36.8944 38.2775 37.0587 38.3577 37.8934 39.5665C38.4357 40.3321 38.654 41.2402 38.4779 41.7055L38.083 42.5151L38.8477 41.8859C39.2293 41.5208 40.2207 41.0524 41.0116 40.7867C42.2496 40.4385 42.5768 40.4978 43.5299 41.4638C44.1922 42.0874 44.4895 42.8337 44.3118 43.198C44.1144 43.6028 44.5616 43.5203 45.4495 42.9512C47.0034 41.9554 47.4325 42.0143 48.4118 43.3438C48.9113 43.9883 49.1579 44.1085 49.6429 43.844C50.0261 43.5799 49.9375 43.1358 49.2111 42.3306C47.9031 40.8408 47.7387 40.7606 46.2787 41.2511C45.3053 41.5781 44.896 41.4787 44.4376 40.8542C43.5207 39.6053 42.0035 39.0658 40.7474 39.5555C39.6129 40.0043 39.6129 40.0043 38.6714 38.4929C37.7513 37.0419 37.6281 36.9818 36.1419 37.1088C34.6557 37.2357 34.5324 37.1756 34.1086 36.1672C33.5354 34.7352 32.9206 34.5355 30.7455 34.9278C29.7295 35.1337 28.7316 35.1982 28.5261 35.098C28.3617 35.0178 27.9625 34.2719 27.7047 33.4447C27.1251 31.6086 26.5498 31.3281 24.4142 31.6393L22.7471 31.9286L22.2939 30.3547C21.6929 28.4581 21.5286 28.378 19.5573 28.7694L18.0135 29.1188L17.5603 27.5449C16.9396 25.6888 16.6306 25.488 14.7005 25.8995C13.298 26.1675 13.2159 26.1275 13.0386 25.2393C12.9287 24.7347 12.8977 24.0682 12.9142 23.8257C12.9702 23.5023 12.2338 23.3435 11.1142 23.4489L9.17923 23.5574L9.34084 22.1831C9.50407 20.9098 9.37918 20.7487 8.00663 20.3298C6.69651 19.9914 6.48944 19.7902 6.63935 18.9614C6.75299 18.4155 6.51975 17.8508 6.02665 17.6103C4.54735 16.8888 5.4027 15.5522 7.85582 14.6943C11.889 13.204 12.2786 13.3439 13.1176 16.1082C14.5166 20.749 18.2011 24.2497 26.9617 29.0236C30.6434 31.0698 32.0389 31.6502 33.4264 31.7257C34.6511 31.8219 36.5989 32.5214 39.5165 33.9444C43.9544 36.1089 46.2048 36.6052 48.62 35.9292C49.2695 35.7449 50.6159 35.8003 51.5988 36.0793C52.5621 36.3988 53.9101 36.5552 54.5003 36.4923C55.9651 36.3048 57.7417 37.7726 57.4125 38.8647C57.1015 39.8154 57.1228 39.8759 58.0103 40.5593C58.4015 40.8002 58.9325 40.8587 59.1528 40.6154C59.3946 40.4327 59.3076 40.0896 58.9377 39.9092C58.5679 39.7289 58.4185 39.3052 58.5962 38.9409C58.7738 38.5766 58.4766 37.8303 57.8965 37.2468C57.0255 36.3209 56.9796 35.9979 57.6113 34.7025C58.0259 33.8525 58.2105 32.6397 58.0152 31.8931C57.8166 30.9444 57.9681 30.2166 58.7445 29.0419C59.6196 27.6648 59.674 27.2404 59.1286 26.2729C58.772 25.648 58.0473 24.9438 57.5542 24.7033C56.8967 24.3826 56.7276 23.9995 57.004 23.4328C57.6555 22.097 56.3777 18.6678 54.8312 17.5627C53.656 16.739 53.4244 16.2753 53.5679 15.0425C53.7759 12.7388 52.3611 10.9464 48.9931 9.40396C45.8504 7.92126 45.2031 6.95412 46.0915 5.1326C46.4468 4.40399 47.0915 3.91667 47.9053 3.81252C48.9624 3.62661 49.0825 3.48474 48.7062 2.90037C47.8667 1.38856 44.2587 0.129867 41.0579 0.12206ZM47.1576 2.94677C47.0589 3.14916 46.5343 3.49461 46.0082 3.73906C44.5924 4.45157 44.2221 5.52365 44.8199 7.21822C45.2058 8.40858 45.7235 8.9116 47.4904 9.77339C50.7367 11.3567 52.311 12.9263 52.3992 14.6228C52.4217 16.0368 52.4019 16.0773 51.1953 15.8395C50.5197 15.6603 49.2966 15.6651 48.4631 15.8097C47.6295 15.9543 46.2799 15.697 45.3759 15.256C44.513 14.8352 43.4889 14.5361 43.1025 14.5982C42.6751 14.6403 41.8516 14.1384 41.1467 13.3937C40.463 12.7095 38.3625 11.3844 36.5331 10.4421C33.5334 8.979 33.1209 8.67758 32.9816 7.60747C32.373 3.95346 36.6468 0.926977 42.1951 1.1277C44.1942 1.20076 47.434 2.38007 47.1576 2.94677ZM31.8193 7.59177C31.7943 8.58172 31.5702 9.87544 31.3333 10.3612C30.8002 11.4541 30.8276 13.1711 31.3617 13.4316C31.6083 13.5519 31.8057 13.1471 31.8751 12.3792C31.9049 11.6922 32.1354 10.8025 32.3723 10.3168C32.7474 9.54767 32.9726 9.6074 36.3453 11.4528C39.6967 13.2377 40.0271 13.4991 41.4318 15.9379C42.2499 17.3892 43.1471 18.6786 43.3936 18.7989C44.2154 19.1997 44.2634 18.3713 43.5307 17.1621C43.1331 16.5172 42.918 15.811 43.0562 15.5276C43.372 14.88 47.3281 17.511 49.0519 19.5042C49.7798 20.4104 50.5654 21.0942 50.7479 21.0329C51.4368 20.7676 50.7008 19.3564 49.3154 18.1295C48.1584 17.1643 48.0517 16.8617 48.6387 16.5969C49.7321 16.128 52.9917 17.2668 54.4198 18.6148C55.787 19.9831 56.2978 21.3346 55.9767 22.9317C55.728 23.9629 55.465 24.0852 53.4264 24.0931C52.1211 24.0577 51.0229 24.2236 50.9044 24.4664C50.6281 25.0331 50.6281 25.0331 53.7894 25.1219C56.8488 25.2111 58.494 26.1137 58.2732 27.6095C57.8529 30.6614 54.2283 29.6452 42.4664 23.3073C39.6278 21.7224 38.9933 21.5632 37.5909 21.8313L35.9436 22.0801L34.0997 20.2287C32.836 18.961 31.2697 17.8964 29.0721 16.8746C25.622 15.2921 24.751 14.3663 23.9285 11.3595C23.6675 10.3303 23.7005 9.84531 24.128 9.80326C24.5554 9.7612 24.5522 9.5592 24.1792 9.17683C22.6443 7.5263 25.2345 5.03155 28.4764 5.0594C31.4322 5.04795 31.825 5.38985 31.8193 7.59177ZM23.4969 13.7045C24.195 15.2976 24.6268 16.811 24.5083 17.0539C24.0345 18.0254 24.4163 21.5187 25.1768 23.1924C25.6006 24.2008 26.5831 25.7323 27.3719 26.6181C28.1196 27.4838 28.6634 28.3503 28.6042 28.4718C28.4068 28.8766 21.7157 24.7613 19.4017 22.831C16.7147 20.5182 15.5907 19.0681 14.6546 16.6072C13.6773 14.1263 13.6073 12.2883 14.476 10.5073C15.5421 8.32143 16.9759 7.46744 19.8069 7.29487L22.434 7.12309L22.361 8.94146C22.3163 9.97188 22.8596 12.0909 23.4969 13.7045ZM45.0366 25.9638C47.6366 27.9335 48.6228 28.4145 50.7318 28.9921C53.6381 29.7081 57.0882 31.2906 57.1176 31.8561C57.2842 34.6432 55.3472 35.9032 52.3357 34.9856C51.2295 34.6465 49.7006 34.6524 48.5431 34.9397C45.7826 35.6978 44.3081 35.2793 37.076 31.7519C31.4464 29.0062 30.4372 28.3637 28.6756 26.5524C26.1251 23.8554 24.358 19.1352 25.3531 17.6163C25.97 16.6644 26.1327 16.6436 28.3287 17.5643C31.3252 18.8254 32.6285 20.0122 37.494 25.993C41.7976 31.2488 43.888 33.2204 44.0134 32.1291C44.0891 31.7652 43.6702 31.0598 43.0506 30.5571C42.1813 29.7323 37.1545 23.8733 36.7767 23.1879C36.6929 23.0468 37.2601 22.8224 38.0115 22.6377C39.6572 22.2879 41.033 22.9088 45.0366 25.9638ZM4.74153 25.2512C4.45043 30.0198 2.93619 43.7623 2.65176 43.824C1.92175 44.0692 1.86505 41.7867 2.43944 35.603C2.82557 31.6825 3.24845 26.2267 3.46975 23.4785C3.75075 19.3564 3.94015 18.4466 4.53035 18.3837C5.05973 18.3413 5.22891 18.7244 5.14466 19.8358C5.03584 20.6847 4.87055 23.1094 4.74153 25.2512ZM8.25018 24.1064C8.22998 25.3993 8.06308 27.7231 7.86358 29.2793C7.36059 33.5437 5.02659 45.7339 4.72241 45.836C3.74906 46.163 3.63314 44.002 4.31956 37.1714C4.72062 32.9075 5.16484 27.5121 5.24956 25.1483C5.37536 22.8045 5.60952 20.8643 5.79203 20.803C5.97453 20.7416 6.60904 20.9008 7.18433 21.1814C8.02751 21.6427 8.21966 22.1874 8.25018 24.1064ZM11.9351 26.3546C12.0382 27.7077 8.45191 43.1955 7.35597 46.0683C6.90671 47.3022 6.66498 47.485 5.84314 47.0842C5.63768 46.9839 5.94438 44.4778 6.488 41.486C7.01187 38.5346 7.80939 33.5621 8.18864 30.4901C8.8778 25.114 8.91408 24.8311 9.91038 24.6656C11.3539 24.4176 11.7878 24.7795 11.9351 26.3546ZM13.818 38.3467C9.52969 49.4334 9.31252 49.8786 8.24092 49.1556C7.51941 48.6533 7.53112 48.1079 8.63074 44.1846C9.34675 41.7779 10.473 36.9658 11.214 33.5691L12.5414 27.3017L14.1904 27.1539C15.8196 27.0466 15.8196 27.0466 16.4141 28.5392C16.9874 29.9712 16.8508 30.3556 13.818 38.3467ZM21.381 31.9137C21.8736 33.4067 21.8144 33.5281 17.3574 42.9792C12.4479 53.4623 12.8081 53.0367 10.596 51.1059C9.95507 50.5428 9.98813 50.0578 10.9656 47.4279C11.632 45.7487 13.2941 41.298 14.6814 37.5151L17.283 30.6165L18.623 30.2679C20.4512 29.8568 20.8013 30.0777 21.381 31.9137ZM27.2752 34.6382L27.9306 36.1103L23.13 45.7446C17.6762 56.6136 18.2584 56.0457 14.94 53.7758L13.2504 52.6511L14.7787 50.0393C15.6324 48.6017 17.7038 44.2505 19.3755 40.4059L22.403 33.3642L24.0487 33.0144C26.1022 32.6631 26.3898 32.8033 27.2752 34.6382Z" fill="#F86B1C" fill-opacity="0.4"/>
</svg>
