<svg width="35" height="26" viewBox="0 0 35 26" fill="none" xmlns="http://www.w3.org/2000/svg">
<path d="M12.515 1.15984C7.06703 2.09206 1.66563 4.578 0.408411 6.7014C-1.68696 10.2231 4.64571 20.2705 11.0715 23.6368C14.005 25.1387 14.2844 25.1905 18.3355 24.828C21.9209 24.5173 22.8521 24.2583 24.6681 22.9118C30.3489 18.7168 34.3068 12.9162 34.9122 7.84079C35.2847 4.94053 34.5397 3.80114 31.3733 2.19564C29.5573 1.26342 28.207 1.10805 21.5949 1.00447C17.3576 0.952675 13.3066 1.00447 12.515 1.15984ZM18.2423 2.45459C17.9164 3.43861 16.3798 4.26725 16.147 3.54219C16.0073 3.12787 15.6348 3.12787 14.7035 3.69756C13.7722 4.21546 13.3997 4.26725 13.1203 3.74935C12.8409 3.28324 12.6547 3.28324 12.3287 3.85293C12.0959 4.26725 11.5837 4.42262 11.1646 4.26725C10.7921 4.11188 10.3265 4.16367 10.1402 4.47441C10.0005 4.73337 9.48835 4.94053 9.06927 4.83695C8.60363 4.73337 7.90518 4.99232 7.43954 5.40664C6.22888 6.54603 5.9495 5.56201 7.11359 4.26725C7.90518 3.43861 8.27769 3.33503 8.41738 3.80114C8.60363 4.31904 8.88302 4.26725 9.58147 3.54219C10.2799 2.86892 10.6059 2.81713 10.7456 3.23145C10.8853 3.69756 11.2578 3.64577 12.0959 3.07608C12.8875 2.45459 13.2134 2.4028 13.2134 2.86892C13.2134 3.38682 13.3531 3.38682 13.9119 2.86892C14.2844 2.50638 14.9829 2.35101 15.4951 2.50638C15.9607 2.60996 16.6592 2.55817 16.9851 2.29922C17.9164 1.67774 18.4286 1.72953 18.2423 2.45459ZM20.198 2.60996C19.8721 3.02429 19.4064 3.38682 19.1736 3.38682C18.8942 3.38682 18.9408 3.02429 19.2667 2.60996C19.5927 2.19564 20.0583 1.83311 20.2911 1.83311C20.5705 1.83311 20.524 2.19564 20.198 2.60996ZM22.5262 2.35101C22.5262 2.71354 22.8056 2.71354 23.4575 2.35101C24.2025 1.93669 24.3888 1.93669 24.3888 2.55817C24.3888 3.12787 23.8766 3.33503 22.5262 3.28324C20.9896 3.28324 20.7568 3.12787 21.1759 2.55817C21.8277 1.72953 22.5262 1.62595 22.5262 2.35101ZM26.4376 3.12787C26.1582 3.95651 24.8544 4.21546 24.8544 3.4904C24.8544 2.81713 25.3666 2.35101 26.0651 2.35101C26.4376 2.35101 26.5773 2.66175 26.4376 3.12787ZM28.3467 3.38682C28.207 3.64577 27.7413 3.90472 27.3688 3.90472C26.9963 3.90472 26.8101 3.64577 26.9498 3.38682C27.0895 3.07608 27.5551 2.86892 27.9276 2.86892C28.3001 2.86892 28.4864 3.07608 28.3467 3.38682ZM31.2802 4.68158C30.9542 5.04411 30.7214 4.99232 30.5817 4.62979C30.4886 4.26725 29.9298 4.16367 29.3711 4.31904C28.4864 4.578 28.4398 4.47441 28.952 3.80114C29.4176 3.12787 29.7436 3.07608 30.6749 3.59398C31.4664 4.0083 31.6527 4.31904 31.2802 4.68158ZM5.76324 4.83695C5.76324 5.56201 3.94726 7.2193 3.57475 6.85677C3.43506 6.64961 3.66787 6.02812 4.13351 5.45843C5.01822 4.37083 5.76324 4.11188 5.76324 4.83695ZM32.7702 4.94053C32.7702 5.19948 32.5374 5.45843 32.258 5.45843C32.0252 5.45843 31.9321 5.19948 32.0718 4.94053C32.2115 4.62979 32.4443 4.42262 32.584 4.42262C32.6771 4.42262 32.7702 4.62979 32.7702 4.94053ZM20.524 5.66559C20.3843 6.07991 20.524 6.7014 20.8965 7.01214C21.8277 7.89258 23.4575 7.16751 23.4575 5.87275C23.4575 4.94053 23.6437 4.83695 25.5994 5.19948C28.7192 5.71738 32.8634 7.16751 32.9565 7.78899C33.0496 8.61764 28.0673 11.1036 25.5994 11.5179C23.8766 11.7768 23.4109 11.6733 23.6437 11.2072C24.1094 10.4303 23.1315 9.08375 22.0606 9.08375C21.0362 9.08375 20.4774 10.5339 21.1293 11.4143C21.8743 12.3983 17.4042 12.968 12.5616 12.5537C7.67236 12.1394 6.78765 11.8286 6.60139 10.4303C6.4617 9.49807 6.18232 9.3427 4.50602 9.44628C3.38849 9.49807 2.50378 9.3427 2.50378 9.08375C2.50378 8.61764 7.25329 6.49424 8.32425 6.49424C8.83645 6.49424 8.88302 6.80498 8.60363 7.63362C7.95174 9.54987 8.78989 11.1554 10.4196 11.1554C11.1646 11.1554 11.8165 10.8964 11.8165 10.5857C11.8165 10.2749 12.189 10.1713 12.7012 10.3785C13.8188 10.741 14.3775 9.86061 14.3775 7.53004C14.3775 5.92454 14.5638 5.66559 15.7745 5.40664C16.566 5.19948 17.963 5.04411 18.9874 4.99232C20.3377 4.94053 20.7102 5.0959 20.524 5.66559ZM2.2244 7.27109C1.94502 8.09974 1.10687 8.35869 1.10687 7.63362C1.10687 7.06393 1.61907 6.49424 2.08471 6.49424C2.31753 6.49424 2.36409 6.85677 2.2244 7.27109ZM12.4219 6.85677C12.0959 6.96035 11.8165 7.42646 11.8165 7.84079C11.8165 8.25511 11.6303 8.56585 11.3509 8.56585C11.1181 8.56585 10.8853 8.92838 10.8853 9.3427C10.8853 9.75703 10.5593 10.1196 10.1868 10.1196C9.25553 10.1196 9.30209 8.35869 10.2334 7.32288C10.6059 6.85677 11.3975 6.49424 11.9562 6.54603C12.515 6.54603 12.7012 6.7014 12.4219 6.85677ZM5.76324 10.6375C5.76324 10.8964 5.4373 11 5.06479 10.8446C4.69228 10.6375 4.36633 10.4303 4.36633 10.3267C4.36633 10.2231 4.69228 10.1196 5.06479 10.1196C5.4373 10.1196 5.76324 10.3267 5.76324 10.6375ZM22.5262 10.6375C22.5262 10.8964 22.4331 11.1554 22.3399 11.1554C22.2003 11.1554 21.9674 10.8964 21.8277 10.6375C21.6881 10.3267 21.7812 10.1196 22.014 10.1196C22.2934 10.1196 22.5262 10.3267 22.5262 10.6375ZM8.51051 13.2788C10.3265 13.6413 13.7256 13.7967 17.963 13.5895C24.3888 13.3306 25.1803 13.1752 32.0718 10.7928C32.9099 10.4821 32.9099 10.5339 32.3512 11.3107C32.0252 11.7768 31.5596 12.1912 31.3733 12.1912C30.7214 12.1912 27.5551 13.7967 27.7413 14.0556C27.881 14.1592 28.7657 13.9003 29.7436 13.4859C30.6749 13.0198 31.6061 12.7609 31.7458 12.9162C32.0718 13.3306 31.9786 13.3823 29.7436 14.7289C28.0207 15.7647 28.207 15.8683 30.3489 14.9361C31.7924 14.3146 29.6039 16.6969 28.0673 17.422C27.0895 17.8363 26.8566 18.1471 27.2291 18.4578C27.6017 18.7168 27.2291 19.0793 26.1116 19.649C25.1803 20.0633 24.3888 20.633 24.3888 20.9437C24.3888 21.2027 23.6437 21.9277 22.7125 22.5492C21.269 23.585 20.5705 23.6886 17.0317 23.4815C12.6081 23.2225 11.025 22.601 7.67236 19.5454C5.71668 17.7845 1.5725 12.0358 1.5725 11.1036C1.5725 10.8964 2.50378 11.1036 3.62131 11.6733C4.78541 12.1912 6.9739 12.9162 8.51051 13.2788Z" fill="#F86B1C" fill-opacity="0.4"/>
</svg>
